<?xml version="1.0" encoding="UTF-8"?>
<svg width="69px" height="62px" viewBox="0 0 69 62" version="1.1" xmlns="http://www.w3.org/2000/svg" xmlns:xlink="http://www.w3.org/1999/xlink">
    <!-- Generator: sketchtool 52.1 (67048) - http://www.bohemiancoding.com/sketch -->
    <title>332FB921-6DC2-41F5-9EFF-7EA658DFAC99@1.5x</title>
    <desc>Created with sketchtool.</desc>
    <g id="Komodo-Website-2.0-Designs" stroke="none" stroke-width="1" fill="none" fill-rule="evenodd">
        <g id="Home-V2-Desktop" transform="translate(-780.000000, -2468.000000)" fill-rule="nonzero">
            <g id="Delivery" transform="translate(765.000000, 2449.000000)">
                <rect id="Rectangle-2" fill-opacity="0" fill="#D8D8D8" x="0" y="0" width="100" height="100"></rect>
                <path d="M26,51 L31,51 C32.1045695,51 33,51.8954305 33,53 L33,80 L24,80 L24,53 C24,51.8954305 24.8954305,51 26,51 Z" id="Rectangle" fill="#FF5F4B"></path>
                <path d="M43,35 L48,35 C49.1045695,35 50,35.8954305 50,37 L50,80 L41,80 L41,37 C41,35.8954305 41.8954305,35 43,35 Z" id="Rectangle-Copy" fill="#FF5F4B"></path>
                <path d="M60,42 L65,42 C66.1045695,42 67,42.8954305 67,44 L67,80 L58,80 L58,44 C58,42.8954305 58.8954305,42 60,42 Z" id="Rectangle-Copy-2" fill="#FF5F4B"></path>
                <polyline id="Path-2" stroke="#000000" stroke-width="2" stroke-linecap="round" stroke-linejoin="round" points="16 20 16 79.9158416 82.5 79.9158416"></polyline>
                <path d="M16,57 C26.7874397,64.5043058 72,67 79,33" id="Path-7" stroke="#000000" stroke-width="2" stroke-linecap="round"></path>
                <g id="Group-16" transform="translate(75.000000, 22.000000)" stroke="#000000" stroke-linecap="round" stroke-linejoin="round" stroke-width="2">
                    <path d="M0,0 L8,8" id="Line"></path>
                    <path d="M0,0 L8,8" id="Line" transform="translate(4.000000, 4.000000) scale(-1, 1) translate(-4.000000, -4.000000) "></path>
                </g>
            </g>
        </g>
    </g>
</svg>