<?xml version="1.0" encoding="UTF-8"?>
<svg width="70px" height="68px" viewBox="0 0 70 68" version="1.1" xmlns="http://www.w3.org/2000/svg" xmlns:xlink="http://www.w3.org/1999/xlink">
    <!-- Generator: sketchtool 52.1 (67048) - http://www.bohemiancoding.com/sketch -->
    <title>990B4B57-EC2A-4707-AFFB-FC8BCDB5DAAD@1.5x</title>
    <desc>Created with sketchtool.</desc>
    <g id="Komodo-Website-2.0-Designs" stroke="none" stroke-width="1" fill="none" fill-rule="evenodd">
        <g id="Home-V2-Desktop" transform="translate(-781.000000, -2210.000000)">
            <g id="Design" transform="translate(765.000000, 2193.000000)">
                <rect id="Rectangle-2" fill-opacity="0" fill="#D8D8D8" fill-rule="nonzero" x="0" y="0" width="100" height="100"></rect>
                <g id="Design-Copy-2" transform="translate(16.000000, 17.000000)">
                    <g id="Flow-1" transform="translate(20.000000, 0.000000)">
                        <polyline id="Stroke-116" stroke="#000000" stroke-width="2" stroke-linecap="round" stroke-linejoin="round" points="0.235159817 46 0.235159817 4.22530924 48.2123288 4.22530924 48.2123288 53.4573421 48.2123288 66.2212025 0.235159817 66.2212025 0.235159817 55.5"></polyline>
                        <polygon id="Stroke-118" stroke="#000000" stroke-width="2" stroke-linecap="round" stroke-linejoin="round" points="11.7739726 66.2211417 37.2808219 66.2211417 37.2808219 58.9275072 11.7739726 58.9275072"></polygon>
                        <path d="M33.720005,6.2178694 L16.6049091,7.5495655 C16.3152242,7.57205421 16.0619776,7.35506858 16.0395073,7.06514661 L15.6502242,2.05563532 C15.6277539,1.76571335 15.8445621,1.51225955 16.134247,1.48977084 L33.2493429,0.158074743 C33.5390279,0.135586037 33.7922744,0.352571663 33.8147447,0.642493634 L34.2040279,5.65200493 C34.2264982,5.9419269 34.00969,6.1953807 33.720005,6.2178694" id="Fill-134" fill="#FFD232"></path>
                        <polygon id="Stroke-137" stroke="#000000" stroke-width="2" stroke-linecap="round" stroke-linejoin="round" points="29.9931507 18.2047754 24.5273973 23.6750012 19.0616438 18.2047754 24.5273973 12.7345495"></polygon>
                        <path d="M24.5273973,23.0671984 L24.5273973,30.3608329" id="Stroke-138" stroke="#000000" stroke-width="2" stroke-linecap="round" stroke-linejoin="round"></path>
                        <path d="M24.2,51.0261306 L24.2,58.927568" id="Stroke-139" stroke="#000000" stroke-width="2" stroke-linecap="round" stroke-linejoin="round"></path>
                        <path d="M11.1666667,43.7324961 L11.1666667,51.0261306" id="Stroke-140" stroke="#000000" stroke-width="2" stroke-linecap="round" stroke-linejoin="round"></path>
                        <path d="M11.1666667,30.9686357 L11.1666667,34.615453" id="Stroke-141" stroke="#000000" stroke-width="2" stroke-linecap="round" stroke-linejoin="round"></path>
                        <path d="M37.2808219,30.9686357 L37.2808219,34.615453" id="Stroke-142" stroke="#000000" stroke-width="2" stroke-linecap="round" stroke-linejoin="round"></path>
                        <path d="M11.1666667,30.9686357 L37.2808219,30.9686357" id="Stroke-143" stroke="#000000" stroke-width="2" stroke-linecap="round" stroke-linejoin="round"></path>
                        <path d="M11.1666667,51.0261306 L24.0510254,51.0261306" id="Stroke-144" stroke="#000000" stroke-width="2" stroke-linecap="round" stroke-linejoin="round"></path>
                        <path d="M42.7465753,39.477876 L47.6050228,39.477876" id="Stroke-145" stroke="#000000" stroke-width="2" stroke-linecap="round" stroke-linejoin="round"></path>
                        <path d="M15.4178082,39.1739745 C15.4178082,41.691494 13.3784749,43.7324961 10.8630137,43.7324961 C8.34755251,43.7324961 6.30821918,41.691494 6.30821918,39.1739745 C6.30821918,36.656455 8.34755251,34.615453 10.8630137,34.615453 C13.3784749,34.615453 15.4178082,36.656455 15.4178082,39.1739745" id="Fill-146" fill="#FFD232"></path>
                        <path d="M15.4178082,39.1739745 C15.4178082,41.691494 13.3784749,43.7324961 10.8630137,43.7324961 C8.34755251,43.7324961 6.30821918,41.691494 6.30821918,39.1739745 C6.30821918,36.656455 8.34755251,34.615453 10.8630137,34.615453 C13.3784749,34.615453 15.4178082,36.656455 15.4178082,39.1739745 Z" id="Stroke-147" stroke="#000000" stroke-width="2" stroke-linecap="round" stroke-linejoin="round"></path>
                        <path d="M42.1392694,39.1739745 C42.1392694,41.691494 40.0999361,43.7324961 37.5844749,43.7324961 C35.0690137,43.7324961 33.0296804,41.691494 33.0296804,39.1739745 C33.0296804,36.656455 35.0690137,34.615453 37.5844749,34.615453 C40.0999361,34.615453 42.1392694,36.656455 42.1392694,39.1739745" id="Fill-148" fill="#FFD232"></path>
                        <path d="M42.1392694,39.1739745 C42.1392694,41.691494 40.0999361,43.7324961 37.5844749,43.7324961 C35.0690137,43.7324961 33.0296804,41.691494 33.0296804,39.1739745 C33.0296804,36.656455 35.0690137,34.615453 37.5844749,34.615453 C40.0999361,34.615453 42.1392694,36.656455 42.1392694,39.1739745 Z" id="Stroke-149" stroke="#000000" stroke-width="2" stroke-linecap="round" stroke-linejoin="round"></path>
                    </g>
                    <g id="pencil" transform="translate(16.568731, 48.336498) rotate(-195.000000) translate(-16.568731, -48.336498) translate(3.568731, 32.836498)">
                        <polygon id="Fill-1" fill="#FFD232" points="22.0028996 22 26 27.1209664 20.5755709 31 16 25.0661586"></polygon>
                        <g id="Group-14">
                            <path d="M19.5758457,29.6601357 C20.4561314,30.7362786 21.3965886,31.1230405 23.1385886,29.7420643 L24.2996743,28.8216595 C26.0416743,27.4406833 25.9607029,26.15935 25.0804171,25.0832071 L8.09276,4.31468333 L0.371502857,0.528254762 L2.91950286,9.29682619 L19.5758457,29.6601357 Z" id="Stroke-2" stroke="#000000" stroke-width="2" stroke-linecap="round" stroke-linejoin="round"></path>
                            <path d="M8.41010857,4.68963571 L3.16925143,9.08794524" id="Stroke-4" stroke="#000000" stroke-width="2" stroke-linecap="round" stroke-linejoin="round"></path>
                            <path d="M22.42864,21.8287238 L16.8631543,26.3443905 C16.5325829,25.9391762 14.5446971,23.5093667 14.5446971,23.5093667 L20.0492686,18.9324381 L22.42864,21.8287238 Z" id="Fill-6" fill="#000000"></path>
                            <path d="M22.42864,21.8287238 L16.8631543,26.3443905 C16.5325829,25.9391762 14.5446971,23.5093667 14.5446971,23.5093667 L20.0492686,18.9324381 L22.42864,21.8287238 Z" id="Stroke-8" stroke="#000000" stroke-width="2" stroke-linecap="round" stroke-linejoin="round"></path>
                            <g id="Group-13" transform="translate(1.485714, 2.214286)">
                                <path d="M1.26954286,0.212719048 L0.268914286,1.04455238" id="Fill-10" fill="#000000"></path>
                                <path d="M1.26954286,0.212719048 L0.268914286,1.04455238" id="Stroke-12" stroke="#000000" stroke-width="2" stroke-linecap="round" stroke-linejoin="round"></path>
                            </g>
                        </g>
                    </g>
                </g>
            </g>
        </g>
    </g>
</svg>