<?xml version="1.0" encoding="UTF-8"?>
<svg width="40px" height="40px" viewBox="0 0 40 40" version="1.1" xmlns="http://www.w3.org/2000/svg" xmlns:xlink="http://www.w3.org/1999/xlink">
    <!-- Generator: sketchtool 53.2 (72643) - https://sketchapp.com -->
    <title>DB131EC4-1021-430F-908B-187520CDC5FA</title>
    <desc>Created with sketchtool.</desc>
    <g id="Komodo-Website-Review-(Feb-2019)" stroke="none" stroke-width="1" fill="none" fill-rule="evenodd">
        <g id="Home-V3-Desktop" transform="translate(-1301.000000, -7828.000000)" fill="#FFFFFF" fill-rule="nonzero">
            <g id="Footer" transform="translate(0.000000, 7449.000000)">
                <g id="Facebook">
                    <path d="M1321,379 C1309.95417,379 1301,387.954167 1301,399 C1301,410.045833 1309.95417,419 1321,419 C1332.04583,419 1341,410.045833 1341,399 C1341,387.954167 1332.04583,379 1321,379 Z M1325.7375,392.820833 L1322.73125,392.820833 C1322.375,392.820833 1321.97917,393.289583 1321.97917,393.9125 L1321.97917,396.083333 L1325.73958,396.083333 L1325.17083,399.179167 L1321.97917,399.179167 L1321.97917,408.472917 L1318.43125,408.472917 L1318.43125,399.179167 L1315.2125,399.179167 L1315.2125,396.083333 L1318.43125,396.083333 L1318.43125,394.2625 C1318.43125,391.65 1320.24375,389.527083 1322.73125,389.527083 L1325.7375,389.527083 L1325.7375,392.820833 Z"></path>
                </g>
            </g>
        </g>
    </g>
</svg>