<?xml version="1.0" encoding="UTF-8"?>
<svg width="40px" height="40px" viewBox="0 0 40 40" version="1.1" xmlns="http://www.w3.org/2000/svg" xmlns:xlink="http://www.w3.org/1999/xlink">
    <!-- Generator: sketchtool 53.2 (72643) - https://sketchapp.com -->
    <title>17A7D29E-49A5-4246-BD0F-C9FDE4DD704F</title>
    <desc>Created with sketchtool.</desc>
    <g id="Komodo-Website-Review-(Feb-2019)" stroke="none" stroke-width="1" fill="none" fill-rule="evenodd">
        <g id="Home-V3-Desktop" transform="translate(-1237.000000, -7828.000000)" fill="#FFFFFF" fill-rule="nonzero">
            <g id="Footer" transform="translate(0.000000, 7449.000000)">
                <g id="Linkedin">
                    <path d="M1257,379 C1245.95417,379 1237,387.954167 1237,399 C1237,410.045833 1245.95417,419 1257,419 C1268.04583,419 1277,410.045833 1277,399 C1277,387.954167 1268.04583,379 1257,379 Z M1252.10417,407.289583 L1248.05417,407.289583 L1248.05417,394.25625 L1252.10417,394.25625 L1252.10417,407.289583 Z M1250.05417,392.65625 C1248.775,392.65625 1247.94792,391.75 1247.94792,390.629167 C1247.94792,389.485417 1248.8,388.60625 1250.10625,388.60625 C1251.4125,388.60625 1252.2125,389.485417 1252.2375,390.629167 C1252.2375,391.75 1251.4125,392.65625 1250.05417,392.65625 Z M1266.89583,407.289583 L1262.84583,407.289583 L1262.84583,400.066667 C1262.84583,398.385417 1262.25833,397.24375 1260.79375,397.24375 C1259.675,397.24375 1259.01042,398.016667 1258.71667,398.760417 C1258.60833,399.025 1258.58125,399.4 1258.58125,399.772917 L1258.58125,407.2875 L1254.52917,407.2875 L1254.52917,398.4125 C1254.52917,396.785417 1254.47708,395.425 1254.42292,394.254167 L1257.94167,394.254167 L1258.12708,396.064583 L1258.20833,396.064583 C1258.74167,395.214583 1260.04792,393.960417 1262.23333,393.960417 C1264.89792,393.960417 1266.89583,395.745833 1266.89583,399.583333 L1266.89583,407.289583 Z"></path>
                </g>
            </g>
        </g>
    </g>
</svg>