<?xml version="1.0" encoding="UTF-8"?>
<svg width="40px" height="40px" viewBox="0 0 40 40" version="1.1" xmlns="http://www.w3.org/2000/svg" xmlns:xlink="http://www.w3.org/1999/xlink">
    <!-- Generator: sketchtool 53.2 (72643) - https://sketchapp.com -->
    <title>0D94C95F-03C6-4313-99E7-1BAFB1C260CD</title>
    <desc>Created with sketchtool.</desc>
    <g id="Komodo-Website-Review-(Feb-2019)" stroke="none" stroke-width="1" fill="none" fill-rule="evenodd">
        <g id="Home-V3-Desktop" transform="translate(-1173.000000, -7828.000000)" fill="#FFFFFF" fill-rule="nonzero">
            <g id="Footer" transform="translate(0.000000, 7449.000000)">
                <g id="Twitter">
                    <path d="M1193,379 C1181.95417,379 1173,387.954167 1173,399 C1173,410.045833 1181.95417,419 1193,419 C1204.04583,419 1213,410.045833 1213,399 C1213,387.954167 1204.04583,379 1193,379 Z M1201.13542,395.383333 C1201.14375,395.554167 1201.14583,395.725 1201.14583,395.891667 C1201.14583,401.1 1197.18542,407.102083 1189.93958,407.102083 C1187.71458,407.102083 1185.64375,406.452083 1183.90208,405.33125 C1184.20833,405.36875 1184.52292,405.383333 1184.84167,405.383333 C1186.6875,405.383333 1188.38542,404.75625 1189.73333,403.697917 C1188.01042,403.664583 1186.55625,402.527083 1186.05417,400.964583 C1186.29375,401.008333 1186.53958,401.033333 1186.79375,401.033333 C1187.15208,401.033333 1187.50208,400.985417 1187.83125,400.895833 C1186.02917,400.533333 1184.67083,398.941667 1184.67083,397.033333 L1184.67083,396.985417 C1185.20208,397.279167 1185.81042,397.458333 1186.45625,397.479167 C1185.39792,396.770833 1184.70417,395.566667 1184.70417,394.197917 C1184.70417,393.477083 1184.89792,392.797917 1185.2375,392.216667 C1187.18125,394.6 1190.08125,396.166667 1193.35625,396.335417 C1193.2875,396.045833 1193.25417,395.745833 1193.25417,395.435417 C1193.25417,393.2625 1195.01667,391.495833 1197.19375,391.495833 C1198.325,391.495833 1199.35,391.975 1200.06875,392.741667 C1200.96667,392.5625 1201.80833,392.2375 1202.56875,391.785417 C1202.275,392.704167 1201.65208,393.477083 1200.8375,393.966667 C1201.63542,393.86875 1202.39375,393.658333 1203.1,393.34375 C1202.57292,394.133333 1201.90417,394.829167 1201.13542,395.383333 Z"></path>
                </g>
            </g>
        </g>
    </g>
</svg>