<?xml version="1.0" encoding="UTF-8"?>
<svg width="40px" height="40px" viewBox="0 0 40 40" version="1.1" xmlns="http://www.w3.org/2000/svg" xmlns:xlink="http://www.w3.org/1999/xlink">
    <!-- Generator: sketchtool 53.2 (72643) - https://sketchapp.com -->
    <title>E763C76C-21B5-428F-92C2-385CD3B9A21E</title>
    <desc>Created with sketchtool.</desc>
    <g id="Komodo-Website-Review-(Feb-2019)" stroke="none" stroke-width="1" fill="none" fill-rule="evenodd">
        <g id="Home-V3-Desktop" transform="translate(-1365.000000, -7828.000000)" fill="#FFFFFF" fill-rule="nonzero">
            <g id="Footer" transform="translate(0.000000, 7449.000000)">
                <g id="Youtube">
                    <path d="M1388.33958,398.652083 L1383.66042,396.46875 C1383.25208,396.279167 1382.91667,396.491667 1382.91667,396.94375 L1382.91667,401.05625 C1382.91667,401.508333 1383.25208,401.720833 1383.66042,401.53125 L1388.3375,399.347917 C1388.74792,399.15625 1388.74792,398.84375 1388.33958,398.652083 Z M1385,379 C1373.95417,379 1365,387.954167 1365,399 C1365,410.045833 1373.95417,419 1385,419 C1396.04583,419 1405,410.045833 1405,399 C1405,387.954167 1396.04583,379 1385,379 Z M1385,407.125 C1374.7625,407.125 1374.58333,406.202083 1374.58333,399 C1374.58333,391.797917 1374.7625,390.875 1385,390.875 C1395.2375,390.875 1395.41667,391.797917 1395.41667,399 C1395.41667,406.202083 1395.2375,407.125 1385,407.125 Z"></path>
                </g>
            </g>
        </g>
    </g>
</svg>