<?xml version="1.0" encoding="UTF-8"?>
<svg width="1081px" height="455px" viewBox="0 0 1081 455" version="1.1" xmlns="http://www.w3.org/2000/svg" xmlns:xlink="http://www.w3.org/1999/xlink">
    <!-- Generator: sketchtool 52.1 (67048) - http://www.bohemiancoding.com/sketch -->
    <title>ED3DEDD9-7A74-4020-B431-C02340CD0DE7@1.5x</title>
    <desc>Created with sketchtool.</desc>
    <g id="Komodo-Website-2.0-Designs" stroke="none" stroke-width="1" fill="none" fill-rule="evenodd">
        <g id="Home-V2-Desktop" transform="translate(-180.000000, -1319.000000)">
            <g id="Illustration" transform="translate(135.000000, 1320.000000)">
                <polygon id="Rectangle-3" fill="#FDFDFD" fill-rule="nonzero" opacity="0" points="0 0 1170 0 1170 460 0 460"></polygon>
                <path d="M775.830259,339.855988 L778.311377,377.057792 L831.241909,377.057792 C831.241909,377.057792 812.219999,369.617431 804.776643,363.003777 C797.730266,356.745607 789.889931,339.855988 789.889931,339.855988 L775.830259,339.855988 Z" id="Shape" fill="#FF5F4B" fill-rule="nonzero"></path>
                <path d="M631.472223,357.137311 C651.321173,354.65719 666.207885,335.642935 667.861964,306.7082 C669.516043,277.773464 667.861964,253.798968 686.883874,254.625675 C705.905784,255.452382 704.251705,310.841733 688.537953,336.469642 C672.824201,362.097551 657.11045,374.498152 616.585511,372.018032 C575.729757,369.537912 571.925375,354.65719 571.925375,354.65719" id="Shape" fill="#DCDCDC" fill-rule="nonzero"></path>
                <path d="M292.366815,172.880913 C297.866628,166.804618 308.816632,154.59416 311.719541,156.470784 C314.62245,158.347409 305.458852,166.507004 305.458852,166.507004" id="Shape" stroke="#000000" stroke-width="1.96939561" stroke-linecap="round" stroke-linejoin="round"></path>
                <path d="M312.430795,158.421812 C312.430795,158.421812 317.732119,152.791939 320.833517,154.230409 C323.934915,155.668879 312.869126,165.622428 312.869126,165.622428" id="Shape" stroke="#000000" stroke-width="1.96939561" stroke-linecap="round" stroke-linejoin="round"></path>
                <path d="M317.96369,160.438977 C317.96369,160.438977 324.348435,154.776035 326.399493,157.338826 C328.450551,159.901617 316.690049,169.003658 316.690049,169.003658" id="Shape" stroke="#000000" stroke-width="1.96939561" stroke-linecap="round" stroke-linejoin="round"></path>
                <path d="M321.164333,165.151205 C323.521396,163.547394 326.291978,161.017671 327.656593,162.77029 C329.021209,164.522908 321.470337,174.980748 303.837854,185.140974" id="Shape" stroke="#000000" stroke-width="1.96939561" stroke-linecap="round" stroke-linejoin="round"></path>
                <polygon id="Shape" stroke="#000000" stroke-width="1.96939561" stroke-linecap="round" stroke-linejoin="round" points="254.342183 92.8060984 213.717999 92.8060984 213.717999 33.8536409 259.395394 33.8536409 259.395394 84.3240872 259.395394 92.8060984"></polygon>
                <polygon id="Rectangle-path" stroke="#000000" stroke-width="1.96939561" stroke-linecap="round" stroke-linejoin="round" points="224.709355 85.8700288 248.991237 85.8700288 248.991237 92.8060984 224.709355 92.8060984"></polygon>
                <path d="M293,100 L304.123682,100" id="Shape" stroke="#000000" stroke-width="1.96939561" stroke-linecap="round" stroke-linejoin="round"></path>
                <path d="M293,104 L300.418545,104" id="Shape" stroke="#000000" stroke-width="1.96939561" stroke-linecap="round" stroke-linejoin="round"></path>
                <path d="M290,112.178651 L290,96 L310.237658,96 L310.237658,112.178651 C310.202811,113.261117 310.617697,114.30973 311.38382,115.075546 C312.149944,115.841361 313.19898,116.25608 314.281882,116.221247 L294.044223,116.221247 C291.810661,116.221247 290,114.411315 290,112.178651 Z" id="Shape" stroke="#000000" stroke-width="1.96939561" stroke-linejoin="round"></path>
                <path d="M293,108 L296.713408,108" id="Shape" stroke="#000000" stroke-width="1.96939561" stroke-linecap="round" stroke-linejoin="round"></path>
                <polygon id="Rectangle-path" stroke="#01D764" stroke-width="1.96939561" fill="#01D764" fill-rule="nonzero" stroke-linejoin="round" points="280.790908 18.2536848 301.028566 18.2536848 301.028566 38.4831986 280.790908 38.4831986"></polygon>
                <path d="M283.677276,24.9334752 L291.095821,24.9334752" id="Shape" stroke="#000000" stroke-width="1.96939561" stroke-linecap="round" stroke-linejoin="round"></path>
                <path d="M283.677276,30.7204224 L294.800958,30.7204224" id="Shape" stroke="#000000" stroke-width="1.96939561" stroke-linecap="round" stroke-linejoin="round"></path>
                <path d="M291.195066,51.1896812 L291.195066,35.0110303 L311.407912,35.0110303 L311.407912,51.1896812 C311.373188,52.2728587 311.787834,53.3222249 312.553674,54.0893226 C313.319514,54.8564203 314.368454,55.2730418 315.452136,55.2405442 L295.247559,55.2405442 C293.009429,55.2405442 291.195066,53.4269111 291.195066,51.1896812 Z" id="Shape" stroke="#DCDCDC" stroke-width="1.96939561" fill="#DCDCDC" fill-rule="nonzero" stroke-linejoin="round"></path>
                <path d="M294.089704,38.5989376 L305.213386,38.5989376" id="Shape" stroke="#000000" stroke-width="1.96939561" stroke-linecap="round" stroke-linejoin="round"></path>
                <path d="M294.089704,46.6923965 L305.213386,46.6923965" id="Shape" stroke="#000000" stroke-width="1.96939561" stroke-linecap="round" stroke-linejoin="round"></path>
                <path d="M294.089704,42.6415335 L301.499979,42.6415335" id="Shape" stroke="#000000" stroke-width="1.96939561" stroke-linecap="round" stroke-linejoin="round"></path>
                <path d="M229.156936,30.6004184 L245.298625,30.6004184 C245.630363,30.6004184 245.89929,30.8693456 245.89929,31.2010841 L245.89929,35.7784329 C245.89929,36.1101714 245.630363,36.3790985 245.298625,36.3790985 L229.156936,36.3790985 C228.825198,36.3790985 228.556271,36.1101714 228.556271,35.7784329 L228.556271,31.2010841 C228.556271,30.8693456 228.825198,30.6004184 229.156936,30.6004184 Z" id="Rectangle-path" fill="#DCDCDC" fill-rule="nonzero" transform="translate(237.227781, 33.489758) rotate(-4.450000) translate(-237.227781, -33.489758) "></path>
                <polygon id="Rectangle-path" stroke="#000000" stroke-width="1.96939561" stroke-linecap="round" stroke-linejoin="round" transform="translate(236.846569, 47.148272) rotate(-45.000000) translate(-236.846569, -47.148272) " points="233.166243 43.4694267 240.526895 43.4694267 240.526895 50.8271166 233.166243 50.8271166"></polygon>
                <path d="M236.850296,51.7683759 L236.850296,58.7044454" id="Shape" stroke="#000000" stroke-width="1.96939561" stroke-linecap="round" stroke-linejoin="round"></path>
                <path d="M236.850296,78.3552646 L236.850296,85.8700288" id="Shape" stroke="#000000" stroke-width="1.96939561" stroke-linecap="round" stroke-linejoin="round"></path>
                <path d="M224.130427,71.4191951 L224.130427,78.3552646" id="Shape" stroke="#000000" stroke-width="1.96939561" stroke-linecap="round" stroke-linejoin="round"></path>
                <path d="M224.130427,59.2831402 L224.130427,62.7553085" id="Shape" stroke="#000000" stroke-width="1.96939561" stroke-linecap="round" stroke-linejoin="round"></path>
                <path d="M248.991237,59.2831402 L248.991237,62.7553085" id="Shape" stroke="#000000" stroke-width="1.96939561" stroke-linecap="round" stroke-linejoin="round"></path>
                <path d="M224.130427,59.2831402 L248.991237,59.2831402" id="Shape" stroke="#000000" stroke-width="1.96939561" stroke-linecap="round" stroke-linejoin="round"></path>
                <path d="M224.130427,78.3552646 L236.850296,78.3552646" id="Shape" stroke="#000000" stroke-width="1.96939561" stroke-linecap="round" stroke-linejoin="round"></path>
                <path d="M254.193316,67.3765991 L258.816467,67.3765991" id="Shape" stroke="#000000" stroke-width="1.96939561" stroke-linecap="round" stroke-linejoin="round"></path>
                <ellipse id="Oval" stroke="#000000" stroke-width="1.96939561" fill="#FFD232" fill-rule="nonzero" stroke-linecap="round" stroke-linejoin="round" cx="223.840964" cy="67.0872518" rx="4.33368731" ry="4.33194331"></ellipse>
                <ellipse id="Oval" stroke="#000000" stroke-width="1.96939561" fill="#FFD232" fill-rule="nonzero" stroke-linecap="round" stroke-linejoin="round" cx="249.280701" cy="67.0872518" rx="4.33368731" ry="4.33194331"></ellipse>
                <polygon id="Rectangle-path" stroke="#000000" stroke-width="1.96939561" stroke-linecap="round" stroke-linejoin="round" points="430.551606 24.5665727 467.801468 24.5665727 467.801468 72.6478366 430.551606 72.6478366"></polygon>
                <path d="M440.074179,22.1935816 L457.816396,22.1935816 C458.126381,22.1935816 458.377673,22.4448743 458.377673,22.7548594 L458.377673,26.3445323 C458.377673,26.6545174 458.126381,26.9058101 457.816396,26.9058101 L440.074179,26.9058101 C439.764193,26.9058101 439.512901,26.6545174 439.512901,26.3445323 L439.512901,22.7548594 C439.512901,22.4448743 439.764193,22.1935816 440.074179,22.1935816 Z" id="Rectangle-path" fill="#000000" fill-rule="nonzero" transform="translate(448.945287, 24.549696) rotate(-2.050000) translate(-448.945287, -24.549696) "></path>
                <path d="M435.737144,32.1144052 L454.601916,32.1144052" id="Shape" stroke="#000000" stroke-width="1.96939561" stroke-linecap="round" stroke-linejoin="round"></path>
                <path d="M435.737144,36.8266336 L462.61593,36.8266336" id="Shape" stroke="#000000" stroke-width="1.96939561" stroke-linecap="round" stroke-linejoin="round"></path>
                <path d="M435.737144,41.538862 L462.61593,41.538862" id="Shape" stroke="#000000" stroke-width="1.96939561" stroke-linecap="round" stroke-linejoin="round"></path>
                <path d="M435.737144,55.6838143 L445.165395,55.6838143" id="Shape" stroke="#000000" stroke-width="1.96939561" stroke-linecap="round" stroke-linejoin="round"></path>
                <path d="M435.737144,60.3960427 L462.61593,60.3960427" id="Shape" stroke="#000000" stroke-width="1.96939561" stroke-linecap="round" stroke-linejoin="round"></path>
                <path d="M435.737144,65.1082711 L458.844629,65.1082711" id="Shape" stroke="#000000" stroke-width="1.96939561" stroke-linecap="round" stroke-linejoin="round"></path>
                <path d="M435.737144,46.2510904 L459.316042,46.2510904" id="Shape" stroke="#000000" stroke-width="1.96939561" stroke-linecap="round" stroke-linejoin="round"></path>
                <path d="M475.410232,89.512654 L455.189114,89.512654 C452.757618,87.0821362 453.535035,69.2831402 453.535035,69.2831402 L473.756152,69.2831402 C473.756152,69.2831402 473.756152,87.8923088 475.410232,89.512654 Z" id="Shape" stroke="#01D764" stroke-width="1.96939561" fill="#01D764" fill-rule="nonzero" stroke-linejoin="round"></path>
                <path d="M457.347688,81.4191951 L468.47137,81.4191951" id="Shape" stroke="#000000" stroke-width="1.96939561" stroke-linecap="round" stroke-linejoin="round"></path>
                <path d="M457.347688,77.3765991 L464.766232,77.3765991" id="Shape" stroke="#000000" stroke-width="1.96939561" stroke-linecap="round" stroke-linejoin="round"></path>
                <path d="M457.347688,73.3340032 L461.052825,73.3340032" id="Shape" stroke="#000000" stroke-width="1.96939561" stroke-linecap="round" stroke-linejoin="round"></path>
                <path d="M332.910941,30.5881493 L332.910941,60.3495918 L334.391342,60.3495918 C334.77178,54.0831548 340.437001,49.1063802 347.384133,49.1063802 C354.331266,49.1063802 359.996487,54.0666206 360.376925,60.3495918 L361.857326,60.3495918 L361.857326,30.5881493 L332.910941,30.5881493 Z M347.963061,46.4609187 C344.67438,46.4609187 342.008376,43.7959883 342.008376,40.5086301 C342.008376,37.221272 344.67438,34.5563416 347.963061,34.5563416 C351.251743,34.5563416 353.917746,37.221272 353.917746,40.5086301 C353.917746,43.7959883 351.251743,46.4609187 347.963061,46.4609187 Z" id="Shape" fill="#FFD232" fill-rule="nonzero"></path>
                <polygon id="Rectangle-path" stroke="#000000" stroke-width="1.96939561" stroke-linecap="round" stroke-linejoin="round" points="332.828237 30.9684344 400.471803 30.9684344 400.471803 98.5847785 332.828237 98.5847785"></polygon>
                <polygon id="Rectangle-path" stroke="#000000" stroke-width="1.96939561" stroke-linecap="round" stroke-linejoin="round" points="332.828237 30.9684344 362.138519 30.9684344 362.138519 60.2669212 332.828237 60.2669212"></polygon>
                <polygon id="Rectangle-path" stroke="#000000" stroke-width="1.96939561" stroke-linecap="round" stroke-linejoin="round" points="365.29781 63.8713626 378.828178 63.8713626 378.828178 77.3962848 365.29781 77.3962848"></polygon>
                <polygon id="Rectangle-path" stroke="#FFD232" stroke-width="1.96939561" fill="#FFD232" fill-rule="nonzero" stroke-linecap="round" stroke-linejoin="round" points="382.880671 63.8713626 396.411039 63.8713626 396.411039 77.3962848 382.880671 77.3962848"></polygon>
                <polygon id="Rectangle-path" stroke="#DCDCDC" stroke-width="1.96939561" fill="#DCDCDC" fill-rule="nonzero" stroke-linecap="round" stroke-linejoin="round" points="365.29781 81.0007262 378.828178 81.0007262 378.828178 94.5256484 365.29781 94.5256484"></polygon>
                <polygon id="Rectangle-path" stroke="#000000" stroke-width="1.96939561" fill="#000000" fill-rule="nonzero" stroke-linecap="round" stroke-linejoin="round" points="382.880671 81.0007262 396.411039 81.0007262 396.411039 94.5256484 382.880671 94.5256484"></polygon>
                <path d="M367.547358,38.2930561 C371.98029,38.2930561 371.98029,40.7731763 376.413222,40.7731763 C380.846154,40.7731763 380.846154,38.2930561 385.287357,38.2930561 C389.728559,38.2930561 389.720289,40.7731763 394.153221,40.7731763" id="Shape" stroke="#000000" stroke-width="1.96939561" stroke-linecap="round" stroke-linejoin="round"></path>
                <path d="M367.547358,44.6421638 C371.492337,44.6421638 371.492337,47.122284 375.445586,47.122284 C379.398835,47.122284 379.390565,44.6421638 383.335543,44.6421638" id="Shape" stroke="#000000" stroke-width="1.96939561" stroke-linecap="round" stroke-linejoin="round"></path>
                <path d="M367.547358,52.6033497 L369.805176,52.6033497" id="Shape" stroke="#FFD232" stroke-width="1.96939561" stroke-linecap="round" stroke-linejoin="round"></path>
                <path d="M367.547358,57.1089014 L373.86594,57.1089014" id="Shape" stroke="#000000" stroke-width="1.96939561" stroke-linecap="round" stroke-linejoin="round"></path>
                <path d="M378.373306,52.6033497 L384.683618,52.6033497" id="Shape" stroke="#FFD232" stroke-width="1.96939561" stroke-linecap="round" stroke-linejoin="round"></path>
                <path d="M378.373306,57.1089014 L396.411039,57.1089014" id="Shape" stroke="#000000" stroke-width="1.96939561" stroke-linecap="round" stroke-linejoin="round"></path>
                <path d="M337.873178,72.8907331 L345.912003,72.8907331" id="Shape" stroke="#000000" stroke-width="1.96939561" stroke-linecap="round" stroke-linejoin="round"></path>
                <path d="M337.873178,79.6531942 L359.880701,79.6531942" id="Shape" stroke="#000000" stroke-width="1.96939561" stroke-linecap="round" stroke-linejoin="round"></path>
                <path d="M337.873178,86.4156553 L359.880701,86.4156553" id="Shape" stroke="#000000" stroke-width="1.96939561" stroke-linecap="round" stroke-linejoin="round"></path>
                <path d="M337.873178,93.1781164 L352.263667,93.1781164" id="Shape" stroke="#000000" stroke-width="1.96939561" stroke-linecap="round" stroke-linejoin="round"></path>
                <path d="M347.797653,36.3750965 C350.08146,36.3750965 351.932851,38.2257425 351.932851,40.5086301 C351.932851,42.7915178 350.08146,44.6421638 347.797653,44.6421638 C345.513847,44.6421638 343.662455,42.7915178 343.662455,40.5086301 C343.662455,38.2257425 345.513847,36.3750965 347.797653,36.3750965 Z M347.797653,33.8949762 C344.143563,33.8949762 341.181337,36.85601 341.181337,40.5086301 C341.181337,44.1612503 344.143563,47.122284 347.797653,47.122284 C351.451744,47.122284 354.41397,44.1612503 354.41397,40.5086301 C354.41397,36.85601 351.451744,33.8949762 347.797653,33.8949762 Z" id="Shape" fill="#000000" fill-rule="nonzero"></path>
                <path d="M334.97854,59.5228851 C336.477697,53.6700831 341.753619,49.576468 347.797653,49.576468 C353.841688,49.576468 359.117609,53.6700831 360.616766,59.5228851" id="Shape" stroke="#000000" stroke-width="1.96939561"></path>
                <path d="M333.324461,68.6166592 L364.751964,68.6166592" id="Shape" stroke="#000000" stroke-width="1.96939561" fill="#01D764" fill-rule="nonzero" stroke-linecap="round" stroke-linejoin="round"></path>
                <path d="M360.440049,28.0069925 L376.581737,28.0069925 C376.913476,28.0069925 377.182403,28.2759197 377.182403,28.6076581 L377.182403,33.1850069 C377.182403,33.5167454 376.913476,33.7856726 376.581737,33.7856726 L360.440049,33.7856726 C360.10831,33.7856726 359.839383,33.5167454 359.839383,33.1850069 L359.839383,28.6076581 C359.839383,28.2759197 360.10831,28.0069925 360.440049,28.0069925 Z" id="Rectangle-path" fill="#DCDCDC" fill-rule="nonzero" transform="translate(368.510893, 30.896333) rotate(-4.450000) translate(-368.510893, -30.896333) "></path>
                <polyline id="Shape" stroke="#000000" stroke-width="1.96939561" stroke-linecap="round" stroke-linejoin="round" points="191.487176 134.274414 191.487176 0 689.364993 0 689.364993 265.372863 513.205566 265.372863 513.205566 265.372863 191.487176 265.372863 191.487176 219.871532"></polyline>
                <path d="M207.975698,160.381107 C216.725777,160.381107 223.813506,166.870755 226.294625,176.088535 C228.196816,183.156878 237.046139,192.62267 258.549168,190.14255 C277.463562,187.960044 291.63075,167.821468 291.63075,167.821468 L306.517462,186.835723 C306.517462,186.835723 287.404578,208.809588 264.338444,214.117045 C238.195724,220.13547 222.986466,209.983511 222.986466,209.983511 L222.986466,255.452382" id="Shape" fill="#DCDCDC" fill-rule="nonzero"></path>
                <path d="M166.044792,160.381107 C157.294714,160.381107 150.206985,166.870755 147.725866,176.088535 C145.823675,183.156878 138.752487,194.391822 117.125402,193.449377 C98.1034924,192.62267 91.4871759,181.048776 91.4871759,181.048776 L76.6004638,200.063031 C76.6004638,200.063031 93.9682946,218.250579 117.125402,218.250579 C143.946295,218.250579 150.206985,209.983511 150.206985,209.983511 L150.206985,255.452382" id="Shape" fill="#DCDCDC" fill-rule="nonzero"></path>
                <path d="M205.403605,424.340301 L206.181022,416.073234 L223.548853,416.073234 C223.548853,416.073234 222.655651,420.206768 224.375893,421.860181 C224.375893,421.860181 221.216602,422.587683 220.97676,425.266213 C220.97676,425.266213 212.218411,428.184488 206.379512,424.778456 L205.403605,424.290699" id="Shape" fill="#FFD232" fill-rule="nonzero"></path>
                <path d="M205.618636,424.522177 C211.035745,426.919626 216.37015,427.506588 221.241413,425.067803 C221.334961,423.496446 222.588873,422.243039 224.160863,422.149529" id="Shape" stroke="#000000" stroke-width="1.96939561" stroke-linejoin="round"></path>
                <path d="M228.031408,424.588313 C226.841681,425.53424 226.127972,426.955037 226.079594,428.473835" id="Shape" stroke="#000000" stroke-width="1.96939561" stroke-linecap="round"></path>
                <path d="M231.438811,426.531074 C230.339685,427.352702 229.719997,428.665913 229.784732,430.036311" id="Shape" stroke="#000000" stroke-width="1.96939561" stroke-linecap="round"></path>
                <path d="M211.407912,440.634691 L258.4003,440.634691 C258.939279,440.634691 259.376207,440.197939 259.376207,439.659177 L259.376207,439.609575 C259.376207,436.21181 255.480851,433.343138 251.105811,431.879867 C251.105811,431.879867 226.708144,424.670984 224.640545,422.381006 C223.843107,421.493492 223.403937,420.341503 223.408257,419.148583 L226.633711,401.787742 L210.274868,401.787742 L202.881135,433.202598" id="Shape" stroke="#000000" stroke-width="1.96939561" stroke-linecap="round"></path>
                <path d="M157.435311,425.993715 L158.212728,417.726647 L175.580559,417.726647 C175.580559,417.726647 174.687356,421.860181 176.407598,423.513595 C176.407598,423.513595 173.248307,424.241097 173.008466,426.919626 C173.008466,426.919626 164.250117,429.837901 158.411217,426.431869 L157.435311,425.944112" id="Shape" fill="#FFD232" fill-rule="nonzero"></path>
                <path d="M158.47738,426.580677 C163.605026,428.672245 168.641697,429.060797 173.248307,426.762552 C173.341855,425.191195 174.595767,423.937788 176.167757,423.844277" id="Shape" stroke="#000000" stroke-width="1.96939561" stroke-linejoin="round"></path>
                <path d="M186.777133,107.975172 C175.717129,108.015322 165.897393,115.075219 162.345872,125.55429 C158.78172,136.070628 162.324428,147.687778 171.151319,154.428573 C179.978383,161.169499 192.123254,161.532059 201.337037,155.329696 C210.550647,149.127449 214.7806,137.742317 211.852468,127.038724 C208.707079,115.85105 198.546591,108.085156 186.921004,107.983241 L186.805363,107.982227 L186.777133,107.975172 Z" id="Shape" stroke="#000000" stroke-width="1.95" fill="#FFFFFF" fill-rule="nonzero"></path>
                <path d="M180.063113,426.241727 C178.873386,427.187653 178.159677,428.60845 178.1113,430.127249" id="Shape" stroke="#000000" stroke-width="1.96939561" stroke-linecap="round"></path>
                <path d="M183.470516,428.184488 C182.371391,429.006115 181.751702,430.319327 181.816437,431.689724" id="Shape" stroke="#000000" stroke-width="1.96939561" stroke-linecap="round"></path>
                <path d="M170.055934,403.432888 L158.551814,403.432888 L158.47738,441.072846 C158.47738,442.04836 159.205175,442.288105 160.181082,442.288105 L210.432006,442.288105 C210.970984,442.288105 211.407912,441.851352 211.407912,441.312591 L211.407912,441.262988 C211.407912,437.865224 207.512556,434.996551 203.137517,433.53328 C203.137517,433.53328 178.73985,426.324398 176.672251,424.03442 C175.874813,423.146906 175.435643,421.994917 175.439962,420.801997 L175.175309,410.054809" id="Shape" stroke="#000000" stroke-width="1.96939561" stroke-linecap="round"></path>
                <path d="M149.379945,133.356064 C140.263543,133.353488 132.725817,126.255011 132.180208,117.158612 C131.634598,108.062213 138.269831,100.114314 147.320617,99.022933 C148.020551,98.9402004 148.724757,98.8987932 149.429568,98.898927 C158.520242,98.9364335 166.018818,106.025189 166.563023,115.095986 C167.107228,124.166782 160.50993,132.100542 151.488896,133.223791 C150.789123,133.309267 150.084918,133.353435 149.379945,133.356064 Z" id="Shape" fill="#000000" fill-rule="nonzero"></path>
                <path d="M161.711105,139.622501 C159.312304,129.71304 163.017864,119.324766 171.147627,113.167885 C171.296112,114.584689 171.354123,116.009512 171.321305,117.433692 C171.098984,125.791721 167.656066,133.741011 161.711105,139.622501 Z" id="Shape" fill="#000000" fill-rule="nonzero"></path>
                <path d="M170.055934,115.648006 C170.055934,116.2267 170.055934,116.805395 170.055934,117.375823 C169.873646,124.603447 167.180599,131.54234 162.4389,137.001841 C162.253964,135.665412 162.176526,134.316313 162.207329,132.967512 C162.36032,126.357882 165.189548,120.093127 170.047664,115.60667 L170.055934,115.648006 Z M172.065641,110.92751 C161.776355,117.529959 157.247899,130.246672 161.049474,141.862876 C168.137929,135.695078 172.306574,126.833148 172.537053,117.441959 C172.59431,115.273984 172.4364,113.105675 172.065641,110.968845 L172.065641,110.92751 Z" id="Shape" fill="#000000" fill-rule="nonzero"></path>
                <path d="M167.516923,115.912552 C158.424735,115.879268 150.922168,108.791748 150.375696,99.7195891 C149.829224,90.64743 156.426821,82.7112535 165.449324,81.5876879 C166.1493,81.5054276 166.853478,81.4640221 167.558275,81.4636819 C176.650463,81.4969657 184.153029,88.5844855 184.699502,97.6566446 C185.245974,106.728804 178.648377,114.66498 169.625874,115.788546 C168.925898,115.870806 168.22172,115.912212 167.516923,115.912552 Z" id="Shape" fill="#000000" fill-rule="nonzero"></path>
                <path d="M148.453661,150.39449 C141.137661,150.358299 135.106299,144.651054 134.669384,137.350961 C134.232469,130.050868 139.540083,123.665525 146.799582,122.757683 C147.348613,122.693281 147.900865,122.660159 148.453661,122.658479 C155.769661,122.69467 161.801023,128.401915 162.237938,135.702008 C162.674853,143.0021 157.367239,149.387444 150.10774,150.295285 C149.545006,150.361272 148.978902,150.394396 148.412309,150.39449 L148.453661,150.39449 Z" id="Shape" fill="#000000" fill-rule="nonzero"></path>
                <ellipse id="Oval" fill="#FFD232" fill-rule="nonzero" cx="177.49929" cy="111.001914" rx="6.71556125" ry="6.71285871"></ellipse>
                <path d="M197.720408,138.29977 L196.893368,138.29977 C183.507351,137.946036 171.713874,129.408236 167.202648,116.805395 C172.066762,111.168779 179.149822,107.935131 186.596726,107.951366 L187.233546,107.951366 C201.385134,108.298703 212.577131,120.045015 212.234952,134.191038 C212.234952,134.422516 212.234952,134.637459 212.234952,134.86067 C207.73808,137.11715 202.776882,138.294678 197.745219,138.29977 L197.720408,138.29977 Z" id="Shape" fill="#000000" fill-rule="nonzero"></path>
                <path d="M186.596726,109.191426 L187.200465,109.191426 C200.633795,109.520949 211.27174,120.646193 210.994393,134.075299 C206.840407,136.03437 202.305242,137.053384 197.712137,137.05971 L196.93472,137.05971 C184.336286,136.724777 173.175484,128.849159 168.641697,117.094742 C173.24944,112.054845 179.766478,109.186222 186.596726,109.191426 Z M186.596726,106.711306 C178.545899,106.715114 170.922331,110.332652 165.829762,116.56565 C170.304243,129.99998 182.724454,139.18823 196.885098,139.53983 L197.712137,139.53983 C203.19006,139.548149 208.586132,138.211029 213.425889,135.646042 C213.467241,135.174819 213.492052,134.703596 213.500323,134.224106 C213.677958,127.102848 211.016594,120.203036 206.102342,115.044217 C201.18809,109.885399 194.423992,106.890675 187.299709,106.719573 L186.596726,106.711306 Z" id="Shape" fill="#000000" fill-rule="nonzero"></path>
                <path d="M643.555271,232.064848 C633.496715,239.876985 619.274748,239.325932 609.851339,230.758935 C600.427929,222.191938 598.53382,208.091567 605.362584,197.343165" id="Shape" stroke="#000000" stroke-width="1.96939561"></path>
                <path d="M615.675768,212.761246 C616.602993,212.761246 617.354658,213.512608 617.354658,214.439461 C617.354658,215.366313 616.602993,216.117675 615.675768,216.117675" id="Shape" stroke="#000000" stroke-width="1.96939561" stroke-linecap="round" stroke-linejoin="round"></path>
                <path d="M618.02456,219.813054 C618.02456,223.334825 622.730415,227.534495 626.088196,226.186963 C626.575908,228.894734 628.716774,231.001975 631.432837,231.447661 C634.148899,231.893347 636.851369,230.580861 638.179514,228.17106 C639.04351,230.580583 641.325438,232.190513 643.886087,232.197121 C645.578666,232.199316 647.202673,231.52875 648.400283,230.333172 C649.597893,229.137594 650.270834,227.515112 650.270832,225.823212 C650.270832,225.707474 650.270832,225.600002 650.270832,225.484263 L650.609919,225.484263 C652.301065,225.484263 653.922946,224.812728 655.118767,223.617388 C656.314588,222.422048 656.986394,220.80082 656.986394,219.110354 C656.991763,216.736918 655.705361,214.548381 653.628613,213.39781 C656.779634,213.39781 659.674272,210.843286 659.674272,207.693534 C659.677354,205.671509 658.668551,203.781928 656.986394,202.65889 C658.181894,201.237274 658.889258,199.469575 659.00437,197.615979 C659.00437,194.044605 656.316492,190.572437 653.397042,189.894538 C653.588938,189.24314 653.667271,188.563593 653.628613,187.88564 C653.628613,183.064182 649.718475,179.155617 644.895075,179.155617 C642.715021,179.150833 640.592739,179.856041 638.849416,181.164514 C638.849416,176.343056 634.939278,172.434491 630.115878,172.434491 C626.7768,172.429007 623.695611,174.228279 622.060513,177.138453 C619.909551,173.41093 615.928173,171.118301 611.623274,171.128295 C604.771854,171.128295 599.21768,176.680233 599.21768,183.528896 C599.14174,191.453164 604.361064,198.455671 611.978901,200.649992 C611.375162,203.692273 612.690155,207.734869 614.195367,210.049648" id="Shape" stroke="#000000" stroke-width="1.96939561" stroke-linejoin="round"></path>
                <path d="M611.978901,212.091614 C612.806552,210.445708 614.503009,209.417966 616.34567,209.446152 C617.682151,209.443953 618.964527,209.973681 619.909563,210.918337 C620.854599,211.862993 621.38454,213.144852 621.382341,214.480796 C621.411649,217.130268 619.332923,219.325221 616.684756,219.441036" id="Shape" stroke="#000000" stroke-width="1.96939561" stroke-linecap="round"></path>
                <path d="M208.819279,160.381107 L203.815689,160.381107 C193.7116,169.171299 178.671352,169.171299 168.567263,160.381107 L164.374173,160.381107 C156.549851,160.381107 150.206985,166.721421 150.206985,174.542594 L150.206985,255.452382 L222.986466,255.452382 L222.986466,174.542594 C222.986466,166.721421 216.6436,160.381107 208.819279,160.381107 Z" id="Shape" fill="#DCDCDC" fill-rule="nonzero"></path>
                <path d="M90.6601364,186.009016 C83.2167803,178.568655 79.1312049,171.955001 71.6878488,171.955001 C64.2444927,171.955001 63.4174532,174.435122 63.4174532,175.261828 C63.4174532,177.741949 65.8985719,179.395362 71.6878488,178.568655" id="Shape" stroke="#000000" stroke-width="1.96939561" stroke-linecap="round" stroke-linejoin="round"></path>
                <path d="M51.8388993,182.702189 C51.1607269,178.626525 69.2067301,176.088535 70.0337697,181.048776 C70.8608092,186.009016 52.6659389,187.662429 51.8388993,182.702189 Z" id="Shape" stroke="#000000" stroke-width="1.96939561" stroke-linecap="round" stroke-linejoin="round"></path>
                <path d="M60.9363345,186.009016 C55.1470576,186.835723 45.2225828,188.489136 46.0496224,192.62267 C46.8766619,196.756204 59.2822554,193.449377 61.7633741,192.62267 C58.4552158,193.449377 50.1848202,195.929497 51.0118597,199.236324 C51.8388993,202.543151 64.2444927,200.063031 68.3796906,197.58291 C72.5148884,195.10279 76.6500862,195.929497 79.1312049,198.409617" id="Shape" stroke="#000000" stroke-width="1.96939561" stroke-linecap="round" stroke-linejoin="round"></path>
                <path d="M69.9841473,181.875482 C68.0984971,183.132077 65.7248936,184.868161 62.5407912,185.26498 L63.5580499,190.274823 L67.94963,194.631567 C68.145913,194.841502 68.4371712,194.934497 68.7188558,194.877171 C69.0005405,194.819845 69.2322406,194.620423 69.3307861,194.350487 L71.6382264,188.621409 L70.2239888,181.68534 C70.1498246,181.755686 70.0695628,181.819316 69.9841473,181.875482 Z" id="Shape" fill="#000000" fill-rule="nonzero"></path>
                <path d="M61.1182832,178.428115 C62.4250057,178.204904 63.3678308,177.601408 63.3678308,176.088535 C63.3678308,174.038302 65.6256488,172.558497 68.2721754,172.103809 L65.2865626,157.471099 C65.1956161,157.053847 64.9419529,156.690081 64.5817859,156.460411 C64.2216189,156.230742 63.7846922,156.154137 63.3678308,156.247573 L58.5048382,157.239622 C57.6328731,157.391002 57.0482039,158.219566 57.1981157,159.091445 L61.1182832,178.428115 Z" id="Shape" fill="#000000" fill-rule="nonzero"></path>
                <path d="M521.294013,423.315185 C514.095972,426.514424 505.857437,426.402647 498.748914,423.009304 C497.73614,422.515911 496.753047,421.963833 495.804653,421.35589" id="Shape" stroke="#000000" stroke-width="1.96939561"></path>
                <path d="M491.255936,424.530444 C492.736229,425.78769 493.589031,427.631662 493.588187,429.573355 C493.588056,429.849664 493.571486,430.12572 493.538565,430.400062" id="Shape" stroke="#000000" stroke-width="1.96939561" stroke-linecap="round"></path>
                <path d="M486.665866,425.332349 C488.145285,426.593027 488.995184,428.440283 488.989847,430.383528 C488.990055,430.659846 488.973484,430.935923 488.940225,431.210234" id="Shape" stroke="#000000" stroke-width="1.96939561" stroke-linecap="round"></path>
                <path d="M490.685278,417.999461 L490.759712,417.999461 C490.890659,418.048257 490.997449,418.146109 491.057446,418.272274 C491.183453,418.549759 491.209746,418.862224 491.13188,419.15685 C490.900244,419.983024 490.48462,420.746108 489.916132,421.388958 C489.720716,420.551445 489.720716,419.680215 489.916132,418.842702 C489.992178,418.421597 490.321898,418.09201 490.743171,418.015995 L490.685278,417.999461 Z M490.743171,415.535875 C489.17716,415.612455 487.861016,416.737696 487.542528,418.272274 C486.806463,421.223617 488.146267,424.447773 489.196607,424.695785 C489.25418,424.704391 489.312713,424.704391 489.370286,424.695785 C490.478519,424.695785 492.943096,422.546348 493.63781,419.735545 C494.175853,417.991506 493.198654,416.141495 491.454425,415.602011 C491.235553,415.546075 491.010433,415.518294 490.784523,415.51934 L490.743171,415.535875 Z" id="Shape" fill="#000000" fill-rule="nonzero"></path>
                <path d="M483.473493,420.429978 C483.762315,420.43341 484.040618,420.53883 484.259181,420.727593 C484.91658,421.285712 485.437175,421.9871 485.780934,422.777826 C484.934134,422.611658 484.138146,422.249219 483.456953,421.719641 C483.216809,421.535092 483.049801,421.271502 482.98554,420.975605 C482.93774,420.832153 482.970446,420.674098 483.071256,420.561373 C483.172066,420.448648 483.325544,420.398513 483.473493,420.429978 Z M483.473493,417.949858 C482.571017,417.927873 481.70833,418.320953 481.132972,419.01631 C480.614257,419.730707 480.402818,420.622758 480.545728,421.493851 C480.688639,422.364945 481.174036,423.142766 481.893848,423.654135 C483.283119,424.730827 484.98272,425.330957 486.7403,425.365418 C487.331002,425.433154 487.924754,425.266971 488.394379,424.902462 C489.04774,424.075755 488.171078,420.711059 485.805745,418.801366 C485.139036,418.267917 484.31094,417.976452 483.456953,417.974659 L483.473493,417.949858 Z" id="Shape" fill="#000000" fill-rule="nonzero"></path>
                <path d="M528.092278,406.549572 L521.748884,421.760976 C521.300795,422.844692 521.005745,423.985464 520.872222,425.150474 L519.044465,441.213386 C518.867478,442.791533 517.531738,443.984314 515.943067,443.982853 L462.565933,443.982853 C461.73757,443.982856 460.943254,443.653358 460.358288,443.067077 C459.773323,442.480796 459.445797,441.68593 459.447994,440.857902 L459.447994,437.741218 C459.452556,430.853352 465.037383,425.270773 471.928021,425.266213 L485.987694,425.266213 C490.751442,425.266213 496.350499,422.554615 498.45118,418.272274 L509.376373,397.191252 L528.092278,406.549572 Z" id="Shape" stroke="#000000" stroke-width="1.96939561" stroke-linecap="round"></path>
                <path d="M507.771198,311.751111 C510.558321,303.087224 525.966068,303.665919 535.063504,315.801974 C544.160939,327.938029 550.992285,341.496019 546.948062,345.563416 C542.903839,349.630813 535.82438,353.648608 520.656474,337.478224 C507.523086,328.351382 504.992345,320.423264 507.771198,311.751111 Z" id="Shape" stroke="#000000" stroke-width="1.96939561" stroke-linecap="round"></path>
                <path d="M496.664774,248.012021 C496.540719,248.012021 493.927274,246.953837 493.803218,246.929035 C484.515996,245.47502 477.312809,238.052245 476.141422,228.728822 C474.970035,219.4054 480.113304,210.432675 488.752421,206.728221 C497.391537,203.023767 507.440396,205.482107 513.391639,212.755926 C519.342882,220.029746 519.759452,230.362623 514.413044,238.09154 C513.635626,239.215862 512.67626,238.852111 511.551487,238.09154 C510.426713,237.33097 509.11999,235.909035 509.897407,234.784713 C511.643084,232.392335 512.51849,229.475489 512.378526,226.517646 C512.378526,217.630549 506.382489,210.810218 497.491814,210.810218 C488.601139,210.810218 481.778062,216.803842 481.778062,225.690939 C481.778062,233.685194 486.674137,240.803139 494.564094,242.034932 C495.914961,242.246839 496.839662,243.51132 496.631693,244.862269 C496.441474,246.085795 497.863982,248.012021 496.664774,248.012021 Z" id="Shape" fill="#FF5F4B" fill-rule="nonzero"></path>
                <path d="M526.04949,248.838728 C522.980483,244.782118 519.666137,240.916937 516.125015,237.264834" id="Shape" stroke="#000000" stroke-width="1.96939561" stroke-linecap="round" stroke-linejoin="round"></path>
                <path d="M514.032605,240.571661 C514.032605,240.571661 504.93517,228.997766 501.445063,231.023198 C498.484262,232.734481 508.49144,243.002178 508.49144,243.002178" id="Shape" stroke="#000000" stroke-width="1.96939561" stroke-linecap="round" stroke-linejoin="round"></path>
                <path d="M502.776597,236.438127 C500.973651,234.784713 497.309865,231.924308 495.655786,233.685194 C493.414509,236.082643 504.422406,246.085795 504.422406,246.085795" id="Shape" stroke="#000000" stroke-width="1.96939561" stroke-linecap="round" stroke-linejoin="round"></path>
                <path d="M499.799254,241.398367 C497.715115,239.67055 495.258807,237.636852 494.009978,239.000918 C492.529577,240.571661 499.088,251.48419 515.579169,262.892743" id="Shape" stroke="#000000" stroke-width="1.96939561" stroke-linecap="round" stroke-linejoin="round"></path>
                <path d="M498.318854,248.012021 C497.905334,248.012021 497.491814,248.012021 497.078294,248.012021 C486.826255,248.012926 477.943421,240.909479 475.693911,230.911304 C473.4444,220.913129 478.429352,210.692051 487.6946,206.305253 C496.959848,201.918455 508.029427,204.538228 514.343318,212.612049 C520.657209,220.685871 520.528143,232.056163 514.032605,239.984699" id="Shape" stroke="#000000" stroke-width="1.96939561" stroke-linecap="round" stroke-linejoin="round"></path>
                <path d="M493.356616,240.943679 C487.235639,239.398347 482.692667,234.253676 481.918523,227.990653 C481.14438,221.727631 484.298037,215.63238 489.85866,212.644301 C495.419283,209.656223 502.24499,210.388924 507.044121,214.489063" id="Shape" stroke="#000000" stroke-width="1.96939561" stroke-linecap="round" stroke-linejoin="round"></path>
                <path d="M695.981309,261.239329 C684.402755,241.398367 657.937489,239.744954 652.867737,239.744954 L647.905499,239.744954 C637.80141,248.535146 622.761162,248.535146 612.657073,239.744954 L608.463983,239.744954 C603.933914,239.746904 599.678608,241.916729 597.017755,245.581503 C595.164288,247.913652 594.186894,250.821252 594.255443,253.798968 C594.255443,261.115323 582.676889,271.986517 561.17386,269.506396 C542.259466,267.323891 528.092278,247.185315 528.092278,247.185315 L513.205566,266.19957 C513.205566,266.19957 532.31845,288.173435 555.384583,293.480892 C575.37413,298.085648 588.96239,293.23288 594.255443,290.69489 L594.255443,330.682695 L662.072687,330.682695" id="Shape" stroke="#000000" stroke-width="1.96939561" fill="#FFFFFF" stroke-linecap="round" stroke-linejoin="round"></path>
                <path d="M549.04119,333.443896 C549.21247,333.532148 549.402616,333.577537 549.595306,333.576169 L549.595306,340.603176 L594.255443,340.603176 L594.255443,330.682688 L551.737339,330.682695 C550.752298,330.681736 549.769335,330.773073 548.801349,330.955508 C548.722113,331.240108 548.616914,331.516838 548.487073,331.782215 C548.181946,332.394093 548.429814,333.137396 549.04119,333.443896 Z" id="Shape" fill="#000000" fill-rule="nonzero"></path>
                <path d="M540.670832,324.482395 L544.80603,324.482395 C545.839829,324.482395 548.114188,325.689386 549.255502,327.590812 C549.422152,327.852304 549.563393,328.129134 549.677293,328.417519 C550.688869,328.251845 551.712275,328.168899 552.737339,328.169507 L595.255443,328.169507 L595.255443,318.282094 L549.768267,318.282094 C546.986989,318.282552 544.392189,319.680384 542.862487,322.002274 L540.670832,322.002274 C539.98569,322.002274 539.430272,322.557468 539.430272,323.242334 C539.430272,323.927201 539.98569,324.482395 540.670832,324.482395 Z" id="Shape" fill="#000000" fill-rule="nonzero"></path>
                <path d="M512.378526,225.591735 C512.378526,225.881082 512.378526,226.170429 512.378526,226.459777 C512.309093,229.439104 511.368989,232.333001 509.674107,234.784713" id="Shape" stroke="#000000" stroke-width="1.96939561" stroke-linecap="round" stroke-linejoin="round"></path>
                <path d="M328.20244,297.614426 C325.77253,292.660316 325.77253,286.861107 328.20244,281.906998 C332.337637,273.63993 336.472835,277.773464 336.472835,281.080291 C336.472835,284.387118 340.608033,288.520651 340.608033,288.520651 C340.608033,288.520651 348.878429,281.080291 357.148824,281.080291 C365.41922,281.080291 376.170734,272.813223 379.478892,272.813223 C382.787051,272.813223 386.922248,282.733704 383.61409,287.693945 C380.305932,292.654185 356.321785,313.321854 348.051389,319.108801 C339.780993,324.895748 324.596547,351.482637 320.461349,387.857733 C316.326151,424.232829 317.153191,438.286844 317.153191,438.286844 C317.153191,438.286844 327.904705,437.460137 326.250626,446.553911 L307.228716,446.553911 C307.228716,446.553911 308.055756,392.817973 306.401677,379.590666 C298.131281,379.590666 269.184896,382.070786 248.508907,376.283839 C227.832918,370.496892 233.622195,361.403117 211.292127,363.056531 C210.465087,373.803718 201.367652,389.511147 176.556465,390.337853 C171.594228,401.085041 168.28607,415.965762 174.075347,437.460137 C180.691663,435.806724 187.30798,439.113551 186.48094,446.553911 L164.977911,446.553911 C164.977911,446.553911 162.389278,422.65382 154.226397,411.005522 C148.43712,402.738454 151.745278,406.045281 159.188635,385.377613 C167.723683,361.675931 162.496793,349.002516 162.496793,349.002516 C162.496793,349.002516 118.969701,362.775451 103.776984,323.374607 C90.6601364,289.347358 127.843835,269.5808 129.41521,272.11879 C130.358035,273.63993 89.8330968,296.787719 118.779481,327.375868 C140.886249,350.738601 159.188635,327.508141 179.037584,322.547901 C203.757797,316.364134 231.918494,322.547901 253.471145,323.374607 C275.801213,324.201314 307.52645,324.895748 328.20244,297.614426 Z" id="Shape" fill="#000000" fill-rule="nonzero"></path>
                <path d="M173.612204,412.220781 C174.872899,411.925133 176.102492,411.509897 177.28426,410.98072 L178.764661,392.6857 L178.202274,392.735303 C175.536139,398.90955 173.982234,405.50609 173.612204,412.220781 Z" id="Shape" fill="#000000" fill-rule="nonzero"></path>
                <path d="M160.826173,352.011729 C159.999133,352.210139 158.957063,352.433349 157.766126,352.65656 C157.766126,363.271475 157.592448,373.754116 157.435311,382.831356 C162.397548,368.182113 162.050191,357.286118 160.826173,352.011729 Z" id="Shape" fill="#000000" fill-rule="nonzero"></path>
                <path d="M178.96315,390.20558 L184.512586,321.390511 C182.668288,321.721194 180.84053,322.093212 179.037584,322.547901 C171.809258,324.350121 164.787692,328.574593 157.716504,332.096364 C157.774397,337.957714 157.790938,344.042276 157.774397,350.126838 C160.718658,349.55641 162.496793,349.002516 162.496793,349.002516 C162.496793,349.002516 167.723683,361.675931 159.188635,385.377613 C158.527003,387.221169 157.898453,388.866315 157.302984,390.337853 C157.063143,402.424306 156.831572,410.583901 156.831572,410.583901 C159.996978,412.203577 163.506108,413.037262 167.062051,413.014419 C168.407603,413.012582 169.751141,412.910337 171.081463,412.708538 C171.42574,404.960248 173.285794,397.354508 176.556465,390.321319 C177.375235,390.304785 178.177463,390.26345 178.96315,390.20558 Z" id="Shape" fill="#000000" fill-rule="nonzero"></path>
                <path d="M230.892965,370.240612 C226.972797,367.289269 224.392434,365.338242 216.204742,365.338242 C215.377702,365.338242 214.459688,365.338242 213.508593,365.404378 C213.042273,368.22702 212.16163,370.965384 210.895148,373.530905 C208.579437,391.867261 205.932911,409.955604 205.932911,409.955604 C217.180649,416.098035 227.717133,410.658305 227.717133,410.658305 L232.770344,371.62948 C232.083902,371.191325 231.488433,370.687034 230.892965,370.240612 Z" id="Shape" fill="#000000" fill-rule="nonzero"></path>
                <path d="M216.204742,362.858121 C225.77359,362.858121 228.742662,365.536651 233.142512,368.818677 L237.558903,334.717024 C237.722307,333.208561 237.635684,331.683486 237.302521,330.203205 L235.731146,321.98574 C226.509655,321.076363 216.709236,320.042979 206.875736,319.869371 C210.580873,327.218794 213.591297,333.716709 214.112332,336.337369 C214.674719,339.164706 213.665731,350.250844 212.177059,362.998661 C213.640919,362.924258 214.980723,362.858121 216.204742,362.858121 Z" id="Shape" fill="#000000" fill-rule="nonzero"></path>
                <path d="M157.650341,329.335163 C158.866089,328.7234 160.081837,328.086836 161.314126,327.442005 C166.82221,324.573332 172.520512,321.605455 178.400764,320.142184 C180.42701,319.629626 182.535961,319.199738 184.686264,318.835988 L187.10122,289.347358 L190.583056,289.347358 C190.583056,289.347358 198.853452,304.228079 205.610365,317.414052 C215.294998,317.521524 224.830765,318.455702 234.060526,319.373347 L235.243193,319.489086 L222.986466,255.452382 L150.206985,255.452382 C150.206985,255.452382 149.570164,277.996675 154.780514,289.306023 C156.633082,293.315551 157.42704,309.775282 157.650341,329.335163 Z" id="Shape" fill="#000000" fill-rule="nonzero"></path>
                <polygon id="Rectangle-path" stroke="#000000" stroke-width="1.96939561" stroke-linejoin="round" points="552 37.6151566 566.059673 37.6151566 566.059673 51.6691711 552 51.6691711"></polygon>
                <polygon id="Rectangle-path" stroke="#000000" stroke-width="1.96939561" stroke-linecap="round" stroke-linejoin="round" points="599.571587 22.5112245 636.763556 22.5112245 636.763556 70.5180847 599.571587 70.5180847"></polygon>
                <path d="M641.477682,84.6382358 L625.003054,84.6382358 C623.026429,82.6706738 623.654979,68.1619705 623.654979,68.1619705 L640.19577,68.1619705 C640.19577,68.1619705 640.19577,83.315505 641.477682,84.6382358 Z" id="Shape" stroke="#01D764" stroke-width="1.96939561" fill="#01D764" fill-rule="nonzero" stroke-linejoin="round"></path>
                <path d="M609.086787,20.1413273 L626.795922,20.1413273 C627.105907,20.1413273 627.3572,20.39262 627.3572,20.7026051 L627.3572,24.2840109 C627.3572,24.5939961 627.105907,24.8452887 626.795922,24.8452887 L609.086787,24.8452887 C608.776802,24.8452887 608.525509,24.5939961 608.525509,24.2840109 L608.525509,20.7026051 C608.525509,20.39262 608.776802,20.1413273 609.086787,20.1413273 Z" id="Rectangle-path" fill="#000000" fill-rule="nonzero" transform="translate(617.941355, 22.493308) rotate(-2.050000) translate(-617.941355, -22.493308) "></path>
                <path d="M604.748855,30.0425228 L623.580545,30.0425228" id="Shape" stroke="#000000" stroke-width="1.96939561" stroke-linecap="round" stroke-linejoin="round"></path>
                <path d="M604.748855,34.7464842 L631.586288,34.7464842" id="Shape" stroke="#000000" stroke-width="1.96939561" stroke-linecap="round" stroke-linejoin="round"></path>
                <path d="M604.748855,39.4587126 L631.586288,39.4587126" id="Shape" stroke="#000000" stroke-width="1.96939561" stroke-linecap="round" stroke-linejoin="round"></path>
                <path d="M604.748855,53.5705966 L614.168835,53.5705966" id="Shape" stroke="#000000" stroke-width="1.96939561" stroke-linecap="round" stroke-linejoin="round"></path>
                <path d="M604.748855,58.282825 L631.586288,58.282825" id="Shape" stroke="#000000" stroke-width="1.96939561" stroke-linecap="round" stroke-linejoin="round"></path>
                <path d="M604.748855,62.9867863 L627.823258,62.9867863" id="Shape" stroke="#000000" stroke-width="1.96939561" stroke-linecap="round" stroke-linejoin="round"></path>
                <path d="M604.748855,44.1626739 L628.294671,44.1626739" id="Shape" stroke="#000000" stroke-width="1.96939561" stroke-linecap="round" stroke-linejoin="round"></path>
                <path d="M553.09153,73.6134544 L553.09153,62.3702428 L567.151203,62.3702428 L567.151203,73.6134544 C567.128028,74.3657883 567.416836,75.0942657 567.949283,75.6264982 C568.48173,76.1587308 569.210501,76.4474227 569.963137,76.4242573 L555.903465,76.4242573 C555.157693,76.4242573 554.442467,76.12812 553.915127,75.6009922 C553.387787,75.0738644 553.09153,74.3589257 553.09153,73.6134544 Z" id="Shape" stroke="#DCDCDC" stroke-width="1.96939561" fill="#DCDCDC" fill-rule="nonzero" stroke-linejoin="round"></path>
                <polygon id="Rectangle-path" stroke="#000000" stroke-width="1.96939561" stroke-linecap="round" stroke-linejoin="round" points="500.875498 35.0669358 540.201229 35.0669358 540.201229 85.8184624 500.875498 85.8184624"></polygon>
                <path d="M513.5944,32.0033226 L527.427873,32.0033226 C527.73242,32.0033226 527.979304,32.2502066 527.979304,32.5547534 L527.979304,37.1727025 C527.979304,37.4772493 527.73242,37.7241332 527.427873,37.7241332 L513.5944,37.7241332 C513.289853,37.7241332 513.042969,37.4772493 513.042969,37.1727025 L513.042969,32.5547534 C513.042969,32.2502066 513.289853,32.0033226 513.5944,32.0033226 Z" id="Rectangle-path" fill="#01D764" fill-rule="nonzero" transform="translate(520.511137, 34.863728) rotate(5.720000) translate(-520.511137, -34.863728) "></path>
                <path d="M519.11172,56.8837266 L530.665463,56.8837266" id="Shape" stroke="#000000" stroke-width="1.96939561" stroke-linecap="round" stroke-linejoin="round"></path>
                <path d="M518.6982,64.051274 L534.411952,64.051274" id="Shape" stroke="#000000" stroke-width="1.96939561" stroke-linecap="round" stroke-linejoin="round"></path>
                <path d="M507.119646,71.2105544 L534.411952,71.2105544" id="Shape" stroke="#000000" stroke-width="1.96939561" stroke-linecap="round" stroke-linejoin="round"></path>
                <path d="M507.119646,78.3781018 L525.670144,78.3781018" id="Shape" stroke="#000000" stroke-width="1.96939561" stroke-linecap="round" stroke-linejoin="round"></path>
                <polygon id="Rectangle-path" stroke="#000000" stroke-width="1.96939561" stroke-linecap="round" stroke-linejoin="round" points="506.267796 42.0360736 513.735963 42.0360736 513.735963 49.5012354 506.267796 49.5012354"></polygon>
                <polygon id="Rectangle-path" stroke="#000000" stroke-width="1.96939561" stroke-linecap="round" stroke-linejoin="round" points="506.267796 56.0322187 513.735963 56.0322187 513.735963 63.4973805 506.267796 63.4973805"></polygon>
                <polygon id="Rectangle-path" stroke="#000000" stroke-width="1.96939561" stroke-linecap="round" stroke-linejoin="round" points="519.52524 42.0360736 526.993407 42.0360736 526.993407 49.5012354 519.52524 49.5012354"></polygon>
                <path d="M533.881555,166.168054 C530.996907,178.606723 521.435921,188.412348 509.070368,191.614088" id="Shape" stroke="#000000" stroke-width="1.96939561" stroke-linecap="round" stroke-linejoin="round"></path>
                <path d="M368.382264,135.832717 C371.579594,135.832717 374.171541,138.423622 374.171541,141.619665 C374.171541,144.815707 371.579594,147.406612 368.382264,147.406612 C365.184935,147.406612 362.592987,144.815707 362.592987,141.619665 C362.592987,138.423622 365.184935,135.832717 368.382264,135.832717 Z M368.382264,133.352597 C363.814651,133.352597 360.111869,137.053889 360.111869,141.619665 C360.111869,146.18544 363.814651,149.886732 368.382264,149.886732 C372.949878,149.886732 376.65266,146.18544 376.65266,141.619665 C376.65266,137.053889 372.949878,133.352597 368.382264,133.352597 Z" id="Shape" fill="#000000" fill-rule="nonzero"></path>
                <path d="M353.495544,167.247573 C353.489795,159.346665 359.662124,152.818668 367.553971,152.379065 C375.445818,151.939462 382.305527,157.741531 383.178002,165.59416" id="Shape" stroke="#000000" stroke-width="1.96939561"></path>
                <path d="M623.233901,147.400601 L611.051608,147.400601 C609.596019,145.912529 610.075702,135 610.075702,135 L622.257994,135 C622.257994,135 622.257994,146.408553 623.233901,147.400601 Z" id="Shape" stroke="#000000" stroke-width="1.96939561" stroke-linejoin="round"></path>
                <polyline id="Shape" stroke="#000000" stroke-width="1.96939561" stroke-linecap="round" stroke-linejoin="round" points="381.614897 166.420867 351.841473 166.420867 351.841473 129.219063 451.086221 129.219063 451.086221 166.420867 387.404174 166.420867"></polyline>
                <polygon id="Shape" stroke="#000000" stroke-width="1.96939561" stroke-linecap="round" stroke-linejoin="round" points="381.614897 166.420867 351.841473 166.420867 351.841473 129.219063 384.923056 129.219063 384.923056 164.767453 384.923056 166.420867 387.870605 166.420867"></polygon>
                <path d="M394.178149,137.486131 L396.343951,137.486131 C396.887785,137.486131 397.328649,137.926995 397.328649,138.470829 L397.328649,140.634967 C397.328649,141.1788 396.887785,141.619665 396.343951,141.619665 L394.178149,141.619665 C393.634315,141.619665 393.193451,141.1788 393.193451,140.634967 L393.193451,138.470829 C393.193451,137.926995 393.634315,137.486131 394.178149,137.486131 Z" id="Rectangle-path" fill="#01D764" fill-rule="nonzero"></path>
                <path d="M394.178149,145.753198 L396.343951,145.753198 C396.887785,145.753198 397.328649,146.194062 397.328649,146.737896 L397.328649,148.902034 C397.328649,149.445868 396.887785,149.886732 396.343951,149.886732 L394.178149,149.886732 C393.634315,149.886732 393.193451,149.445868 393.193451,148.902034 L393.193451,146.737896 C393.193451,146.194062 393.634315,145.753198 394.178149,145.753198 Z" id="Rectangle-path" fill="#01D764" fill-rule="nonzero"></path>
                <path d="M394.178149,154.020266 L396.343951,154.020266 C396.887785,154.020266 397.328649,154.46113 397.328649,155.004963 L397.328649,157.169101 C397.328649,157.712935 396.887785,158.153799 396.343951,158.153799 L394.178149,158.153799 C393.634315,158.153799 393.193451,157.712935 393.193451,157.169101 L393.193451,155.004963 C393.193451,154.46113 393.634315,154.020266 394.178149,154.020266 Z" id="Rectangle-path" fill="#01D764" fill-rule="nonzero"></path>
                <path d="M518.167803,118.219063 L518.167803,155.420867 L519.863234,155.420867 C520.443579,147.654084 526.917041,141.648518 534.708594,141.648518 C542.500147,141.648518 548.97361,147.654084 549.553955,155.420867 L551.249386,155.420867 L551.249386,118.219063 L518.167803,118.219063 Z M534.708594,138.060025 C530.597742,138.060025 527.265238,134.728862 527.265238,130.619665 C527.265238,126.510467 530.597742,123.179304 534.708594,123.179304 C538.819446,123.179304 542.15195,126.510467 542.15195,130.619665 C542.15195,134.728862 538.819446,138.060025 534.708594,138.060025 Z" id="Shape" stroke="#000000" stroke-width="1.96939561" fill="#FFD232" fill-rule="nonzero" stroke-linecap="round" stroke-linejoin="round"></path>
                <polygon id="Shape" stroke="#000000" stroke-width="1.96939561" stroke-linecap="round" stroke-linejoin="round" points="394.020491 174.687934 401.463847 174.687934 401.463847 207.756204 376.65266 207.756204 376.65266 192.048776 376.65266 174.687934"></polygon>
                <polygon id="Rectangle-path" stroke="#000000" stroke-width="1.96939561" stroke-linecap="round" stroke-linejoin="round" points="551.249386 163.687934 576.060572 163.687934 576.060572 196.756204 551.249386 196.756204"></polygon>
                <path d="M398.342888,178.821468 L412.855202,178.821468 C413.41535,178.821468 413.86944,179.275558 413.86944,179.835706 L413.86944,186.074296 C413.86944,186.634445 413.41535,187.088535 412.855202,187.088535 L398.342888,187.088535 C397.782739,187.088535 397.328649,186.634445 397.328649,186.074296 L397.328649,179.835706 C397.328649,179.275558 397.782739,178.821468 398.342888,178.821468 Z" id="Rectangle-path" fill="#000000" fill-rule="nonzero"></path>
                <path d="M581.790981,155.420867 L595.141351,155.420867 C596.022362,155.420867 596.736562,156.135067 596.736562,157.016077 L596.736562,174.493325 C596.736562,175.374335 596.022362,176.088535 595.141351,176.088535 L581.790981,176.088535 C580.90997,176.088535 580.19577,175.374335 580.19577,174.493325 L580.19577,157.016077 C580.19577,156.135067 580.90997,155.420867 581.790981,155.420867 Z" id="Rectangle-path" fill="#01D764" fill-rule="nonzero"></path>
                <path d="M423.124534,174.687934 L433.560732,174.687934 C434.104565,174.687934 434.545429,175.128798 434.545429,175.672632 L434.545429,190.237371 C434.545429,190.781205 434.104565,191.222069 433.560732,191.222069 L423.124534,191.222069 C422.5807,191.222069 422.139836,190.781205 422.139836,190.237371 L422.139836,175.672632 C422.139836,175.128798 422.5807,174.687934 423.124534,174.687934 Z" id="Rectangle-path" fill="#DCDCDC" fill-rule="nonzero"></path>
                <path d="M570.842474,145.087032 L581.278671,145.087032 C581.822505,145.087032 582.263369,145.527897 582.263369,146.07173 L582.263369,160.636469 C582.263369,161.180303 581.822505,161.621167 581.278671,161.621167 L570.842474,161.621167 C570.29864,161.621167 569.857776,161.180303 569.857776,160.636469 L569.857776,146.07173 C569.857776,145.527897 570.29864,145.087032 570.842474,145.087032 Z" id="Rectangle-path" fill="#DCDCDC" fill-rule="nonzero" transform="translate(576.060572, 153.354100) rotate(-90.000000) translate(-576.060572, -153.354100) "></path>
                <path d="M423.124534,195.355602 L433.560732,195.355602 C434.104565,195.355602 434.545429,195.796467 434.545429,196.3403 L434.545429,210.905039 C434.545429,211.448873 434.104565,211.889737 433.560732,211.889737 L423.124534,211.889737 C422.5807,211.889737 422.139836,211.448873 422.139836,210.905039 L422.139836,196.3403 C422.139836,195.796467 422.5807,195.355602 423.124534,195.355602 Z" id="Rectangle-path" fill="#DCDCDC" fill-rule="nonzero"></path>
                <path d="M439.665325,174.687934 L450.101523,174.687934 C450.645356,174.687934 451.086221,175.128798 451.086221,175.672632 L451.086221,190.237371 C451.086221,190.781205 450.645356,191.222069 450.101523,191.222069 L439.665325,191.222069 C439.121491,191.222069 438.680627,190.781205 438.680627,190.237371 L438.680627,175.672632 C438.680627,175.128798 439.121491,174.687934 439.665325,174.687934 Z" id="Rectangle-path" fill="#DCDCDC" fill-rule="nonzero"></path>
                <path d="M476.815825,188.489136 L501.627012,188.489136" id="Shape" stroke="#000000" stroke-width="1.96939561" stroke-linecap="round" stroke-linejoin="round"></path>
                <path d="M476.815825,192.62267 L497.491814,192.62267" id="Shape" stroke="#000000" stroke-width="1.96939561" stroke-linecap="round" stroke-linejoin="round"></path>
                <path d="M476.815825,196.756204 L497.491814,196.756204" id="Shape" stroke="#000000" stroke-width="1.96939561" stroke-linecap="round" stroke-linejoin="round"></path>
                <path d="M476.815825,200.889737 L493.356616,200.889737" id="Shape" stroke="#000000" stroke-width="1.96939561" stroke-linecap="round" stroke-linejoin="round"></path>
                <path d="M526.214898,171.177897 C529.274944,169.995706 531.607196,167.490785 533.823662,165.060267 C535.244895,167.905128 536.504006,170.828072 537.594962,173.815092" id="Shape" stroke="#000000" stroke-width="1.96939561" stroke-linecap="round" stroke-linejoin="round"></path>
                <path d="M610,126.920481 L610,117 L622.405593,117 L622.405593,126.920481 C622.384712,127.584429 622.639404,128.227457 623.109307,128.697171 C623.57921,129.166885 624.222497,129.421474 624.886712,129.400601 L612.481119,129.400601 C611.110835,129.400601 610,128.290213 610,126.920481 Z" id="Shape" stroke="#000000" stroke-width="1.96939561" stroke-linecap="round" stroke-linejoin="round"></path>
                <path d="M534.708594,124.832717 C537.905924,124.832717 540.497871,127.423622 540.497871,130.619665 C540.497871,133.815707 537.905924,136.406612 534.708594,136.406612 C531.511265,136.406612 528.919317,133.815707 528.919317,130.619665 C528.919317,127.423622 531.511265,124.832717 534.708594,124.832717 Z M534.708594,122.352597 C530.140981,122.352597 526.438199,126.053889 526.438199,130.619665 C526.438199,135.18544 530.140981,138.886732 534.708594,138.886732 C539.276208,138.886732 542.97899,135.18544 542.97899,130.619665 C542.97899,126.053889 539.276208,122.352597 534.708594,122.352597 Z" id="Shape" fill="#000000" fill-rule="nonzero"></path>
                <path d="M518.581323,155.420867 L550.008826,155.420867" id="Shape" stroke="#000000" stroke-width="1.96939561" fill="#01D764" fill-rule="nonzero" stroke-linecap="round" stroke-linejoin="round"></path>
                <path d="M402.704406,137.899484 C406.839604,137.899484 406.839604,140.379604 410.974802,140.379604 C415.11,140.379604 415.11,137.899484 419.245197,137.899484 C423.380395,137.899484 423.380395,140.379604 427.515593,140.379604 C431.650791,140.379604 431.650791,137.899484 435.785989,137.899484 C439.921187,137.899484 439.921187,140.379604 444.056384,140.379604" id="Shape" stroke="#000000" stroke-width="1.96939561" stroke-linecap="round" stroke-linejoin="round"></path>
                <path d="M402.704406,146.993258 C406.839604,146.993258 406.839604,149.473379 410.974802,149.473379 C415.11,149.473379 415.11,146.993258 419.245197,146.993258 C423.380395,146.993258 423.380395,149.473379 427.515593,149.473379 C431.650791,149.473379 431.650791,146.993258 435.785989,146.993258 C439.921187,146.993258 439.921187,149.473379 444.056384,149.473379" id="Shape" stroke="#000000" stroke-width="1.96939561" stroke-linecap="round" stroke-linejoin="round"></path>
                <path d="M402.704406,156.087032 C406.839604,156.087032 406.839604,158.567153 410.974802,158.567153 C415.11,158.567153 415.11,156.087032 419.245197,156.087032 C423.380395,156.087032 423.380395,158.567153 427.515593,158.567153 C431.650791,158.567153 431.650791,156.087032 435.785989,156.087032 C439.921187,156.087032 439.921187,158.567153 444.056384,158.567153" id="Shape" stroke="#000000" stroke-width="1.96939561" stroke-linecap="round" stroke-linejoin="round"></path>
                <path d="M557.452182,120.28583 C561.58738,120.28583 561.58738,122.765951 565.722578,122.765951 C569.857776,122.765951 569.857776,120.28583 573.992974,120.28583 C578.128171,120.28583 578.128171,122.765951 582.263369,122.765951 C586.398567,122.765951 586.398567,120.28583 590.533765,120.28583 C594.668963,120.28583 594.668963,122.765951 598.80416,122.765951" id="Shape" stroke="#000000" stroke-width="1.96939561" stroke-linecap="round" stroke-linejoin="round"></path>
                <path d="M557.452182,129.379604 C561.58738,129.379604 561.58738,131.859725 565.722578,131.859725 C569.857776,131.859725 569.857776,129.379604 573.992974,129.379604 C578.128171,129.379604 578.128171,131.859725 582.263369,131.859725 C586.398567,131.859725 586.398567,129.379604 590.533765,129.379604 C594.668963,129.379604 594.668963,131.859725 598.80416,131.859725" id="Shape" stroke="#000000" stroke-width="1.96939561" stroke-linecap="round" stroke-linejoin="round"></path>
                <path d="M557.452182,138.473379 C561.58738,138.473379 561.58738,140.953499 565.722578,140.953499 C569.857776,140.953499 569.857776,138.473379 573.992974,138.473379 C578.128171,138.473379 578.128171,140.953499 582.263369,140.953499" id="Shape" stroke="#000000" stroke-width="1.96939561" stroke-linecap="round" stroke-linejoin="round"></path>
                <path d="M355.885124,286.552816 L355.885124,286.552816 C356.570266,286.552816 357.125683,287.108233 357.125683,287.793375 L357.125683,289.44579 C357.125683,290.130932 356.570266,290.686349 355.885124,290.686349 L355.885124,290.686349 C355.199982,290.686349 354.644564,290.130932 354.644564,289.44579 L354.644564,287.793375 C354.644564,287.108233 355.199982,286.552816 355.885124,286.552816 Z" id="Rectangle-path" fill="#FFFFFF" fill-rule="nonzero" transform="translate(355.885124, 288.619583) rotate(-35.910000) translate(-355.885124, -288.619583) "></path>
                <path d="M813.874078,82.7501929 L813.874078,243.1313" id="Shape" stroke="#000000" stroke-width="1.96939561" stroke-linecap="round" stroke-linejoin="round"></path>
                <path d="M813.807915,87.5285579 C812.657252,73.4777571 819.73234,60.0276098 831.964925,53.0110414 C844.19751,45.9944731 859.384522,46.6751577 870.939808,54.7579028 L813.807915,87.5285579 Z" id="Shape" stroke="#000000" stroke-width="1.96939561" stroke-linecap="round" stroke-linejoin="round"></path>
                <path d="M813.874078,137.387241 C823.705986,128.026707 838.071563,125.205203 850.715657,130.151287 C863.359752,135.09737 871.99389,146.915841 872.85854,160.460626 L813.874078,137.387241 Z" id="Shape" stroke="#000000" stroke-width="1.96939561" stroke-linecap="round" stroke-linejoin="round"></path>
                <path d="M764.028404,135.659424 C762.959676,125.385704 766.840496,115.215954 774.48273,108.263699 C782.124965,101.311445 792.618394,98.4047256 802.750396,100.43345 C806.410151,101.241483 809.896764,102.694354 813.047039,104.724058 L764.028404,135.659424 Z" id="Shape" stroke="#000000" stroke-width="1.96939561" stroke-linecap="round" stroke-linejoin="round"></path>
                <path d="M783.529997,227.357735 C783.874553,225.337964 784.568624,223.39367 785.581055,221.612124 C788.271451,216.616847 793.23379,213.250692 798.871439,212.596717 C804.509088,211.942743 810.110745,214.083462 813.874078,218.330098 L783.529997,227.357735 Z" id="Shape" stroke="#000000" stroke-width="1.96939561" fill="#01D764" fill-rule="nonzero" stroke-linecap="round" stroke-linejoin="round"></path>
                <path d="M814.783822,138.552898 C814.9575,132.914758 816.545416,127.276618 818.786693,121.74595 C824.824461,106.848541 837.761821,95.8388087 853.437682,92.2578556 C869.113543,88.6769026 885.550909,92.9763481 897.462967,103.773345 L814.783822,138.552898 Z" id="Shape" stroke="#000000" stroke-width="1.96939561" fill="#01D764" fill-rule="nonzero" stroke-linecap="round" stroke-linejoin="round"></path>
                <path d="M813.874078,82.1797653 C810.17279,62.3010676 795.257134,46.3817353 775.655232,41.3891663 C756.053329,36.3965973 735.33535,43.2401075 722.568911,58.9245047 L813.874078,82.1797653 Z" id="Shape" stroke="#000000" stroke-width="1.96939561" fill="#01D764" fill-rule="nonzero" stroke-linecap="round" stroke-linejoin="round"></path>
                <path d="M794.025129,76.136539 L785.754733,58.7756975" id="Shape" stroke="#000000" stroke-width="1.96939561" stroke-linecap="round" stroke-linejoin="round"></path>
                <path d="M775.003219,71.1762986 L766.732823,53.8154571" id="Shape" stroke="#000000" stroke-width="1.96939561" stroke-linecap="round" stroke-linejoin="round"></path>
                <path d="M755.981309,67.0427649 L747.710913,49.6819234" id="Shape" stroke="#000000" stroke-width="1.96939561" stroke-linecap="round" stroke-linejoin="round"></path>
                <path d="M872.345776,205.218529 C871.41855,205.218529 870.666885,205.969891 870.666885,206.896744 C870.666885,207.823596 871.41855,208.574958 872.345776,208.574958" id="Shape" stroke="#000000" stroke-width="1.96939561" stroke-linecap="round" stroke-linejoin="round"></path>
                <path d="M872.081123,201.853833 C872.43675,195.6866 873.644228,187.179788 881.4184,189.76738 L878.730521,186.410951 C868.819068,176.154732 852.51566,175.724052 842.076117,185.442669 C831.636574,195.161285 830.908223,211.447557 840.438589,222.058545 L840.438589,222.000676 C843.422758,223.242816 846.610611,223.92385 849.842029,224.009573 C859.113143,224.009573 866.688825,219.189873 871.345058,211.931388 C871.345058,211.931388 866.639203,211.253488 866.639203,206.557794 C866.639203,201.8621 872.01496,201.853833 872.01496,201.853833" id="Shape" stroke="#000000" stroke-width="1.96939561" fill="#000000" fill-rule="nonzero" stroke-linecap="round" stroke-linejoin="round"></path>
                <ellipse id="Oval" stroke="#000000" stroke-width="1.96939561" cx="859.915371" cy="204.548897" rx="26.1923429" ry="26.1818024"></ellipse>
                <path d="M876.042642,204.499294 C875.214991,202.853389 873.518534,201.825647 871.675873,201.853833 C868.89286,201.858393 866.639199,204.114846 866.639203,206.896744 C866.635672,209.539168 868.705097,211.720461 871.345058,211.856984" id="Shape" stroke="#000000" stroke-width="1.96939561" stroke-linecap="round"></path>
                <path d="M1065.50914,86.2388953 C1056.1331,84.8696323 1047.41994,91.3519237 1046.04062,100.722797 C1045.81364,102.248236 1045.79694,103.797581 1045.991,105.327554 C1056.03043,104.718689 1065.53288,109.906474 1070.44656,118.678868 C1077.25269,115.412078 1081.12338,108.082544 1079.98219,100.622197 C1078.84101,93.1618503 1072.95606,87.3234039 1065.48432,86.2388953 L1065.50914,86.2388953 Z" id="Shape" stroke="#000000" stroke-width="1.96939561"></path>
                <path d="M1024.00829,120.051201 C1029.03943,112.049225 1038.70934,108.271153 1047.83548,110.741821 C1056.96162,113.21249 1063.40251,121.352147 1063.70619,130.798389" id="Shape" stroke="#000000" stroke-width="1.96939561"></path>
                <path d="M1063.09418,110.353931 C1063.96327,108.609771 1063.8114,106.530632 1062.69808,104.93116 C1061.58476,103.331687 1059.68729,102.466607 1057.74913,102.674874 C1055.81097,102.883142 1054.1408,104.131589 1053.39301,105.93105 C1056.89659,106.722823 1060.19912,108.228488 1063.09418,110.353931 Z" id="Shape" fill="#000000" fill-rule="nonzero"></path>
                <path d="M1021.46101,133.179304 C1021.34234,131.335759 1021.41718,129.48486 1021.68431,127.656903 C1023.40336,113.446143 1036.21785,103.247505 1050.45806,104.756812 C1064.69827,106.266119 1075.08826,118.924178 1073.7878,133.179304" id="Shape" stroke="#000000" stroke-width="1.96939561"></path>
                <path d="M1061.70475,132.807286 C1062.52935,131.158561 1064.22778,130.129625 1066.07152,130.161824 C1067.75232,130.158661 1069.32318,130.996529 1070.25634,132.393933" id="Shape" stroke="#000000" stroke-width="1.96939561" stroke-linecap="round"></path>
                <path d="M908.983628,213.452528 L884.999481,213.369857" id="Shape" stroke="#000000" stroke-width="1.96939561" stroke-linecap="round" stroke-linejoin="round"></path>
                <path d="M893.269876,286.12005 L1104.16496,286.12005 L1104.16496,415.913008 C1104.16496,417.739318 1105.64608,419.219835 1107.47312,419.219835 L1121.5328,419.219835 C1123.35984,419.219835 1124.84095,417.739318 1124.84095,415.913008 L1124.84095,214.196564 L1085.14305,213.915484" id="Shape" stroke="#000000" stroke-width="1.96939561" stroke-linecap="round" stroke-linejoin="round"></path>
                <path d="M882.253709,227.423872 L881.782297,227.423872 C876.13384,234.813407 867.362122,239.148565 858.058667,239.148565 C848.755212,239.148565 839.983495,234.813407 834.335037,227.423872 L829.910376,227.423872 C822.68205,227.423872 816.82661,234.517016 816.82661,243.255306 L816.82661,244.842583 C816.82661,244.842583 833.177182,244.015876 840.223559,278.092728 C844.143726,297.106983 845.235419,324.809926 845.235419,324.809926 L895.337475,324.809926 L895.337475,243.255306 C895.337475,234.517016 889.482035,227.423872 882.253709,227.423872 Z" id="Shape" fill="#DCDCDC" fill-rule="nonzero"></path>
                <path d="M788.310286,331.870001 C783.455563,306.787719 780.387247,244.784713 811.277174,243.958007 C842.167102,243.1313 843.755018,298.586788 845.342934,324.718988 C846.93085,350.851188 865.142261,354.802846 884.941588,354.009208 C904.740915,353.215569 913.457912,354.009208 913.457912,357.969133 C913.457912,361.929058 880.194381,384.894971 843.755018,379.347769 C807.315655,373.800567 793.065763,356.390123 788.310286,331.870001 Z" id="Shape" stroke="#000000" stroke-width="1.96939561" stroke-linecap="round" stroke-linejoin="round"></path>
                <path d="M845.342934,379.438707 L848.551847,450.353611 C848.596675,451.675515 849.557424,452.787332 850.859288,453.023874 C851.657665,453.182144 852.485279,452.981488 853.1224,452.475181 C853.759521,451.968874 854.141691,451.208138 854.167446,450.394946 L854.03512,380.232345 L845.342934,379.438707 Z" id="Shape" fill="#000000" fill-rule="nonzero"></path>
                <path d="M1076.87266,285.235474 L1080.08984,356.150378 C1080.13156,357.473498 1081.09376,358.587001 1082.39728,358.820641 C1083.19566,358.978911 1084.02327,358.778255 1084.6604,358.271948 C1085.29752,357.765641 1085.67969,357.004905 1085.70544,356.191713 L1085.57312,286.029113 L1076.87266,285.235474 Z" id="Shape" fill="#000000" fill-rule="nonzero"></path>
                <path d="M900.45685,368.790724 L892.070669,372.320762 L907.883666,440.590204 C908.171642,441.877244 909.318365,442.789434 910.637707,442.780977 C911.453477,442.790871 912.232143,442.440867 912.766091,441.824286 C913.300038,441.207705 913.534986,440.38723 913.40829,439.581622 L900.45685,368.790724 Z" id="Shape" fill="#000000" fill-rule="nonzero"></path>
                <path d="M803.949604,364.086763 L784.208169,432.819161 C783.826538,434.082997 784.381837,435.44138 785.539703,436.076386 C786.245382,436.488713 787.097514,436.567459 787.866854,436.291437 C788.636195,436.015416 789.243736,435.412974 789.526034,434.646183 L812.054591,368.35257 L803.949604,364.086763 Z" id="Shape" fill="#000000" fill-rule="nonzero"></path>
                <path d="M953.155811,418.550203 L937.442059,416.822386 C935.956753,416.665654 934.623441,415.842005 933.818881,414.584178 C933.01432,413.326352 932.8259,411.770969 933.306862,410.357539 L927.517585,408.38171 L932.479822,403.189991 L928.915282,339.351697 C928.243134,331.131363 921.36989,324.804049 913.118826,324.809926 L844.548976,324.809922 C844.548976,324.809922 846.128621,339.029282 852.472015,344.601285 C858.815408,350.173288 866.58958,354.100145 878.465868,354.100145 C895.916403,354.100145 911.73767,353.695059 912.531628,356.481061 C913.82181,361.003147 905.609307,365.525233 902.557531,367.038106 L902.797372,368.35257 L914.971395,434.861127 L918.337446,434.861127 L920.603534,428.652559 L923.65531,434.861127 L954.661023,434.712319 C956.191685,434.70457 957.481162,433.567462 957.679718,432.050324 L958.556379,425.43667 C958.770872,423.804597 958.319244,422.154909 957.303284,420.859422 C956.287325,419.563934 954.792533,418.731667 953.155811,418.550203 Z" id="Shape" fill="#000000" fill-rule="nonzero"></path>
                <path d="M869.897738,378.645068 L869.897738,423.948598 C869.895503,426.066502 871.560787,427.811251 873.677309,427.908523 L887.323462,428.528553 L887.323462,421.402341 L894.444273,426.941276 L901.813195,425.172124 L897.620105,405.570907 L891.276711,403.98363 L894.444273,401.610982 L889.697066,373.106133 C883.322744,375.679338 876.682277,377.537033 869.897738,378.645068 Z" id="Shape" fill="#000000" fill-rule="nonzero"></path>
                <polygon id="Rectangle-path" fill="#DCDCDC" fill-rule="nonzero" points="914.45863 203.250967 937.65709 203.250967 937.65709 228.250579 914.45863 228.250579"></polygon>
                <polygon id="Rectangle-path" fill="#DCDCDC" fill-rule="nonzero" points="914.45863 155.500386 1038.20029 155.500386 1038.20029 162.543927 914.45863 162.543927"></polygon>
                <polygon id="Rectangle-path" fill="#5A96FF" fill-rule="nonzero" points="914.45863 162.717536 937.65709 162.717536 937.65709 168.901302 914.45863 168.901302"></polygon>
                <path d="M937.66536,162.717536 L937.66536,226.597165" id="Shape" stroke="#000000" stroke-width="1.96939561" stroke-linejoin="round"></path>
                <path d="M1037.68752,162.717536 L913.945865,162.717536" id="Shape" stroke="#000000" stroke-width="1.96939561" stroke-linejoin="round"></path>
                <path d="M914.979665,169.41386 L937.144325,169.41386" id="Shape" stroke="#000000" stroke-width="1.96939561" stroke-linecap="round" stroke-linejoin="round"></path>
                <path d="M914.979665,176.217657 L937.144325,176.217657" id="Shape" stroke="#000000" stroke-width="1.96939561" stroke-linecap="round" stroke-linejoin="round"></path>
                <path d="M914.549604,183.021453 L936.722535,183.021453" id="Shape" stroke="#000000" stroke-width="1.96939561" stroke-linecap="round" stroke-linejoin="round"></path>
                <path d="M914.549604,189.82525 L936.722535,189.82525" id="Shape" stroke="#000000" stroke-width="1.96939561" stroke-linecap="round" stroke-linejoin="round"></path>
                <path d="M914.549604,196.629046 L936.722535,196.629046" id="Shape" stroke="#000000" stroke-width="1.96939561" stroke-linecap="round" stroke-linejoin="round"></path>
                <path d="M914.772905,203.449377 L936.945836,203.449377" id="Shape" stroke="#000000" stroke-width="1.96939561" stroke-linecap="round" stroke-linejoin="round"></path>
                <path d="M943.851616,168.463147 L950.550637,168.463147" id="Shape" stroke="#000000" stroke-width="1.96939561" stroke-linecap="round" stroke-linejoin="round"></path>
                <path d="M949.004073,173.621798 L974.782896,173.621798" id="Shape" stroke="#5A96FF" stroke-width="1.96939561" stroke-linecap="round" stroke-linejoin="round"></path>
                <path d="M978.909823,173.621798 L994.375463,173.621798" id="Shape" stroke="#000000" stroke-width="1.96939561" stroke-linecap="round" stroke-linejoin="round"></path>
                <path d="M954.164799,178.77218 L969.630439,178.77218" id="Shape" stroke="#000000" stroke-width="1.96939561" stroke-linecap="round" stroke-linejoin="round"></path>
                <path d="M973.757367,178.77218 L1013.96803,178.77218" id="Shape" stroke="#000000" stroke-width="1.96939561" stroke-linecap="round" stroke-linejoin="round"></path>
                <path d="M943.851616,189.081214 L950.550637,189.081214" id="Shape" stroke="#000000" stroke-width="1.96939561" stroke-linecap="round" stroke-linejoin="round"></path>
                <path d="M949.004073,183.930831 L955.711363,183.930831" id="Shape" stroke="#000000" stroke-width="1.96939561" stroke-linecap="round" stroke-linejoin="round"></path>
                <path d="M959.317256,183.930831 L966.016276,183.930831" id="Shape" stroke="#5A96FF" stroke-width="1.96939561" stroke-linecap="round" stroke-linejoin="round"></path>
                <path d="M943.851616,194.231596 L961.376584,194.231596" id="Shape" stroke="#000000" stroke-width="1.96939561" stroke-linecap="round" stroke-linejoin="round"></path>
                <path d="M949.004073,199.390247 L966.537311,199.390247" id="Shape" stroke="#5A96FF" stroke-width="1.96939561" stroke-linecap="round" stroke-linejoin="round"></path>
                <path d="M970.664239,199.390247 L994.375463,199.390247" id="Shape" stroke="#000000" stroke-width="1.96939561" stroke-linecap="round" stroke-linejoin="round"></path>
                <path d="M954.164799,204.54063 L1009.8411,204.54063" id="Shape" stroke="#000000" stroke-width="1.96939561" stroke-linecap="round" stroke-linejoin="round"></path>
                <path d="M954.164799,209.69928 L975.303931,209.69928" id="Shape" stroke="#000000" stroke-width="1.96939561" stroke-linecap="round" stroke-linejoin="round"></path>
                <path d="M979.422588,209.69928 L1000.56172,209.69928" id="Shape" stroke="#5A96FF" stroke-width="1.96939561" stroke-linecap="round" stroke-linejoin="round"></path>
                <path d="M954.164799,214.849663 L961.897619,214.849663" id="Shape" stroke="#000000" stroke-width="1.96939561" stroke-linecap="round" stroke-linejoin="round"></path>
                <path d="M966.016276,214.849663 L984.583315,214.849663" id="Shape" stroke="#000000" stroke-width="1.96939561" stroke-linecap="round" stroke-linejoin="round"></path>
                <path d="M1089.74139,221.504652 C1086.75578,225.100826 1085.78815,232.003827 1089.07976,232.359311 C1093.27285,232.797466 1092.58641,227.399071 1095.06753,224.918951 C1098.37569,221.612124 1100.85681,221.612124 1101.68385,217.47859" id="Shape" stroke="#000000" stroke-width="1.96939561" stroke-linecap="round" stroke-linejoin="round"></path>
                <path d="M949.004073,220.008313 L971.689768,220.008313" id="Shape" stroke="#5A96FF" stroke-width="1.96939561" stroke-linecap="round" stroke-linejoin="round"></path>
                <path d="M943.851616,225.158696 L951.071671,225.158696" id="Shape" stroke="#000000" stroke-width="1.96939561" stroke-linecap="round" stroke-linejoin="round"></path>
                <path d="M1085.14305,163.767453 C1092.58641,167.900987 1104.992,185.261828 1104.16496,216.676684 L1085.14305,216.676684 L1085.14305,163.767453 Z" id="Shape" stroke="#000000" stroke-width="1.96939561" fill="#DCDCDC" fill-rule="nonzero" stroke-linecap="round" stroke-linejoin="round"></path>
                <path d="M913.449642,236.749124 L1038.74614,236.749124 C1041.1135,236.749128 1043.03391,234.833191 1043.03847,232.466783 L1043.03847,154.830753 C1043.03847,152.461116 1041.11673,150.540145 1038.74614,150.540145 L913.449642,150.540145 C912.319365,150.544453 911.237722,151.000279 910.44551,151.806146 C909.653299,152.612013 909.216279,153.701029 909.23174,154.830753 L909.23174,232.466783 C909.216265,233.595744 909.653544,234.683917 910.445996,235.488476 C911.238449,236.293035 912.320123,236.74702 913.449642,236.749124 Z" id="Shape" stroke="#000000" stroke-width="1.96939561" stroke-linejoin="round"></path>
                <path d="M1042.96404,219.156805 L1080.85072,219.156805 C1083.22131,219.156805 1085.14305,217.235834 1085.14305,214.866197 L1085.14305,137.230167 C1085.14306,136.092986 1084.69057,135.002501 1083.88536,134.199168 C1083.08015,133.395835 1081.98836,132.945631 1080.85072,132.947826 L955.554226,132.947826 C954.424707,132.94993 953.343033,133.403915 952.55058,134.208474 C951.758128,135.013033 951.320849,136.101206 951.336324,137.230167 L951.336324,150.540145" id="Shape" stroke="#000000" stroke-width="1.96939561" stroke-linejoin="round"></path>
                <path d="M962.989312,253.878488 L992.704843,253.878488 C997.121234,253.878488 998.659528,250.092171 996.120516,246.479462 L989.595174,237.179012" id="Shape" stroke="#000000" stroke-width="1.96939561" stroke-linecap="round" stroke-linejoin="round"></path>
                <path d="M965.131344,237.179012 L970.639428,245.016191 C971.970961,246.917617 972.384481,248.670235 971.987502,250.050835" id="Shape" stroke="#000000" stroke-width="1.96939561" stroke-linecap="round" stroke-linejoin="round"></path>
                <polyline id="Shape" stroke="#000000" stroke-width="1.96939561" stroke-linecap="round" stroke-linejoin="round" points="989.826745 250.050835 956.786515 250.050835 956.786515 253.878488 989.826745 253.878488"></polyline>
                <polygon id="_Rectangle_" stroke="#000000" stroke-width="1.96939561" stroke-linejoin="round" points="914.483441 155.632659 1037.71234 155.632659 1037.71234 226.729438 914.483441 226.729438"></polygon>
                <path d="M919.098322,277.695909 C924.308671,278.597019 930.056596,280.597649 934.621855,276.488917 C939.187113,272.380184 940.79157,275.66221 943.206525,276.174768 C945.621481,276.687326 947.085341,272.479389 943.206525,270.288616 C939.823933,268.370657 937.557845,269.056823 935.763169,270.073673" id="Shape" stroke="#000000" stroke-width="1.96939561" stroke-linecap="round" stroke-linejoin="round"></path>
                <path d="M931.892624,267.436478 C934.009845,265.592922 936.110526,262.749051 939.981071,263.790701 C948.135681,265.973207 945.017742,270.487026 939.683337,269.081625" id="Shape" stroke="#000000" stroke-width="1.96939561" stroke-linecap="round" stroke-linejoin="round"></path>
                <path d="M935.697006,264.005645 C934.10909,263.82377 929.907729,264.162719 927.062713,266.485765 C924.217697,268.808811 918.63518,267.932502 918.63518,267.932502" id="Shape" stroke="#000000" stroke-width="1.96939561" stroke-linecap="round" stroke-linejoin="round"></path>
                <path d="M944.546329,265.989741 C947.225937,266.899119 953.941499,271.570012 952.667858,276.240905 C951.617518,280.085091 931.884354,280.953133 925.143981,278.836764" id="Shape" stroke="#000000" stroke-width="1.96939561" stroke-linecap="round" stroke-linejoin="round"></path>
                <path d="M945.166609,275.794483 C945.621751,276.785291 945.880155,277.854993 945.927485,278.944236" id="Shape" stroke="#000000" stroke-width="1.96939561" stroke-linecap="round" stroke-linejoin="round"></path>
                <polygon id="Rectangle-path" fill="#DCDCDC" fill-rule="nonzero" transform="translate(897.446426, 273.719449) rotate(180.000000) translate(-897.446426, -273.719449) " points="873.420927 262.58371 921.471926 262.58371 921.471926 284.855189 873.420927 284.855189"></polygon>
                <polygon id="Rectangle-path" fill="#5A96FF" fill-rule="nonzero" points="1013.19061 261.178308 1031.97268 261.178308 1031.97268 272.438054 1013.19061 272.438054"></polygon>
                <polygon id="Rectangle-path" stroke="#000000" stroke-width="1.96939561" stroke-linecap="round" stroke-linejoin="round" points="1013.19061 257.42506 1031.97268 257.42506 1031.97268 276.19957 1013.19061 276.19957"></polygon>
                <path d="M1031.97268,262.434902 C1033.18366,260.81694 1035.29559,260.156798 1037.21296,260.796915 C1039.13032,261.437031 1040.42152,263.233314 1040.41676,265.253972 C1040.41676,267.841564 1038.85365,271.818024 1031.97268,271.818024" id="Shape" stroke="#000000" stroke-width="1.96939561" stroke-linecap="round" stroke-linejoin="round"></path>
                <path d="M1025.59621,243.660392 C1026.22476,246.793611 1023.71883,249.918562 1024.97593,253.051781" id="Shape" stroke="#000000" stroke-width="1.96939561" stroke-linecap="round" stroke-linejoin="round"></path>
                <path d="M1029.97952,248.041938 C1029.22204,249.596389 1028.99543,251.356256 1029.33443,253.051781" id="Shape" stroke="#000000" stroke-width="1.96939561" stroke-linecap="round" stroke-linejoin="round"></path>
                <path d="M1085.97009,148.060025 C1093.41345,153.020266 1109.1272,166.247573 1109.95424,213.369857" id="Shape" stroke="#000000" stroke-width="1.96939561" stroke-linecap="round" stroke-linejoin="round"></path>
                <path d="M1077.6997,219.156805 C1074.39154,222.463632 1072.80362,229.259161 1076.04562,229.903992 C1080.18082,230.730699 1079.74249,225.770459 1082.22361,223.290338" id="Shape" stroke="#000000" stroke-width="1.96939561" stroke-linecap="round" stroke-linejoin="round"></path>
                <path d="M1083.61303,221.545987 C1080.30487,224.852814 1078.70869,231.640076 1081.95895,232.293175 C1085.62274,233.028944 1085.7716,228.812739 1087.40914,226.208613" id="Shape" stroke="#000000" stroke-width="1.96939561" stroke-linecap="round" stroke-linejoin="round"></path>
                <path d="M1101.68385,269.164295 C1099.93093,269.059999 1098.29139,268.26342 1097.12639,266.95003 C1095.9614,265.63664 1095.36651,263.914184 1095.47278,262.162089 C1095.68304,258.665292 1098.58458,255.938944 1102.0891,255.945254 L1102.49434,255.945254 L1103.72663,256.019658 L1102.89959,269.246966 L1101.68385,269.164295 Z" id="Shape" fill="#01D764" fill-rule="nonzero"></path>
                <path d="M1102.0891,257.185315 L1102.41991,257.185315 L1101.77482,267.932502 C1098.80587,267.845752 1096.46942,265.369588 1096.5562,262.401834 C1096.64299,259.43408 1099.12015,257.098565 1102.0891,257.185315 Z M1102.0891,254.705194 C1097.74986,254.577353 1094.12854,257.989944 1094.00065,262.32743 C1093.87276,266.664917 1097.28672,270.28478 1101.62595,270.412622 L1104.10707,270.56143 L1104.25594,268.081309 L1104.89276,257.334122 L1105.04163,254.854002 L1102.56051,254.705194 L1102.08083,254.705194 L1102.0891,254.705194 Z" id="Shape" fill="#000000" fill-rule="nonzero"></path>
                <path d="M1074.95393,223.604487 C1072.59686,226.663302 1070.40521,234.864233 1074.5983,237.245148 C1079.6267,240.097286 1089.9647,239.683933 1094.34801,234.657556 C1100.82373,227.217195 1100.73282,219.991778 1100.73282,219.991778" id="Shape" stroke="#000000" stroke-width="1.96939561" stroke-linecap="round" stroke-linejoin="round"></path>
                <path d="M1102.51089,275.372863 C1099.90234,276.503273 1097.08332,277.06685 1094.24049,277.026276 C1089.27825,277.026276 1086.91292,275.372863 1086.91292,275.372863 L1085.25884,250.571661 L1104.16496,250.571661 L1102.51089,275.372863 Z" id="Shape" stroke="#000000" stroke-width="1.96939561" stroke-linecap="round" stroke-linejoin="round"></path>
                <polygon id="Shape" stroke="#000000" stroke-width="1.96939561" stroke-linecap="round" stroke-linejoin="round" points="1081.8349 250.571661 1107.47312 250.571661 1107.47312 247.264834 1104.992 247.264834 1104.992 244.784713 1084.31602 243.1313 1084.31602 247.264834 1081.8349 247.264834"></polygon>
                <path d="M1062.81299,324.975267 L1044.61812,324.975267 L1042.96404,333.639154 C1042.96404,333.639154 1047.99244,333.920234 1048.75331,339.00448 C1054.7907,339.34343 1062.92877,336.168876 1063.15207,332.151082 C1063.28022,329.75383 1063.16661,327.349772 1062.81299,324.975267 Z" id="Shape" fill="#01D764" fill-rule="nonzero"></path>
                <path d="M1063.30921,316.93141 L1063.30921,346.469642 C1063.28286,348.760525 1061.71251,350.744753 1059.48829,351.29761 C1051.19823,354.016699 1043.05233,357.156754 1035.08235,360.705532 C1031.22835,362.474685 1012.64477,365.285488 1009.86591,362.17707 C1007.08706,359.068653 1018.96335,349.776469 1018.96335,349.776469 C1024.96158,344.956506 1031.29931,340.574647 1037.92737,336.6649 C1041.4282,335.150805 1043.77437,331.791338 1043.98957,327.98448 L1044.66774,315.881493" id="Shape" stroke="#000000" stroke-width="1.96939561" stroke-linecap="round" stroke-linejoin="round"></path>
                <path d="M1036.40561,337.590812 C1036.40561,337.590812 1042.43473,337.929762 1043.16253,343.005741" id="Shape" stroke="#000000" stroke-width="1.96939561" stroke-linecap="round" stroke-linejoin="round"></path>
                <path d="M1031.38548,340.682695 C1031.38548,340.682695 1037.24092,340.682695 1038.0018,345.74214" id="Shape" stroke="#000000" stroke-width="1.96939561" stroke-linecap="round" stroke-linejoin="round"></path>
                <path d="M1042.6663,333.9037 C1042.6663,333.9037 1047.68643,334.18478 1048.41423,339.269027 C1053.5915,339.558374 1060.92734,337.268396 1063.04456,334.069041" id="Shape" stroke="#000000" stroke-width="1.96939561" stroke-linecap="round" stroke-linejoin="round"></path>
                <path d="M1041.30996,286.12005 L1041.30996,320.015027 C1045.2624,321.580393 1049.46483,322.420541 1053.71555,322.495147 C1058.17275,322.416628 1062.6088,321.862344 1066.94818,320.841733 L1067.77522,286.12005 L1041.30996,286.12005 Z" id="Shape" fill="#000000" fill-rule="nonzero"></path>
                <path d="M1007.40134,286.12005 L1007.40134,313.078957 C1011.16552,314.336965 1015.1022,315.003504 1019.07086,315.054786 C1023.2373,314.992238 1027.38949,314.552283 1031.47646,313.740322 L1032.25387,286.12005 L1007.40134,286.12005 Z" id="Shape" fill="#000000" fill-rule="nonzero"></path>
                <path d="M1028.64798,327.091636 L1028.90436,317.997862 L1009.9817,317.997862 C1009.9817,317.997862 1010.74258,322.784494 1008.97271,324.54538 C1008.97271,324.54538 1012.28087,325.30595 1012.50417,328.075417 C1012.50417,328.075417 1021.60161,331.101164 1027.64726,327.571126 L1028.64798,327.066835" id="Shape" fill="#01D764" fill-rule="nonzero"></path>
                <path d="M1028.45776,327.281779 C1022.84216,329.761899 1017.301,330.373662 1012.25606,327.852206 C1012.15851,326.22323 1010.85873,324.923968 1009.22909,324.82646" id="Shape" stroke="#000000" stroke-width="1.96939561" stroke-linejoin="round"></path>
                <path d="M1005.19314,327.347915 C1006.4243,328.332468 1007.16185,329.806982 1007.21112,331.382244" id="Shape" stroke="#000000" stroke-width="1.96939561" stroke-linecap="round"></path>
                <path d="M1001.66168,329.36508 C1002.77388,330.231431 1003.39166,331.586915 1003.31576,332.994322" id="Shape" stroke="#000000" stroke-width="1.96939561" stroke-linecap="round"></path>
                <path d="M1026.42325,343.989522 L975.849777,343.989522 C975.292528,343.989522 974.840788,343.537964 974.840788,342.98094 C974.840788,339.450902 978.876742,336.425155 983.417189,334.912282 C983.417189,334.912282 1006.5743,327.471921 1008.69979,325.066205 C1009.52866,324.145581 1009.98299,322.948295 1009.97343,321.709775 L1009.97343,304.654815 L1028.90436,304.654815 L1028.90436,341.509402" id="Shape" stroke="#000000" stroke-width="1.96939561" stroke-linecap="round"></path>
                <path d="M1085.14305,210.063031 L1098.37569,210.063031" id="Shape" stroke="#000000" stroke-width="1.96939561" stroke-linecap="round" stroke-linejoin="round"></path>
                <path d="M832.068949,130.699184 L840.339344,113.338342" id="Shape" stroke="#000000" stroke-width="1.96939561" stroke-linecap="round" stroke-linejoin="round"></path>
                <path d="M851.090859,122.432116 L859.361254,105.071275" id="Shape" stroke="#000000" stroke-width="1.96939561" stroke-linecap="round" stroke-linejoin="round"></path>
                <polyline id="Shape" stroke="#000000" stroke-width="1.96939561" stroke-linecap="round" stroke-linejoin="round" points="779.965456 318.361613 769.213942 318.361613 769.213942 296.867238 784.927694 296.867238"></polyline>
                <polyline id="Shape" stroke="#000000" stroke-width="1.96939561" stroke-linecap="round" stroke-linejoin="round" points="832.068949 377.057792 778.311377 377.057792 774.176179 318.361613"></polyline>
                <path d="M631.472223,357.137311 C651.321173,354.65719 666.207885,335.642935 667.861964,306.7082 C669.516043,277.773464 667.861964,253.798968 686.883874,254.625675 C705.905784,255.452382 704.251705,310.841733 688.537953,336.469642 C672.824201,362.097551 657.11045,374.498152 616.585511,372.018032 C575.729757,369.537912 571.925375,354.65719 571.925375,354.65719" id="Shape" stroke="#000000" stroke-width="1.96939561" fill="#D8D8D8" stroke-linecap="round"></path>
                <path d="M604.328785,371.100387 L585.778287,443.759643 C585.450107,445.117594 584.214401,446.059528 582.817486,446.016552 C581.956232,446.009541 581.141496,445.624867 580.589021,444.964392 C580.036546,444.303917 579.802061,443.434264 579.947658,442.585719 L595.140375,370.05047 L604.328785,371.100387 Z" id="Shape" fill="#000000" fill-rule="nonzero"></path>
                <path d="M581.849849,363.750965 L564.788023,416.866872 C564.48566,417.886654 563.507661,418.553361 562.447501,418.462416 C561.794048,418.423222 561.19103,418.098338 560.799019,417.574273 C560.407007,417.050208 560.265795,416.380161 560.412984,415.742551 L575.233533,360.444138 L581.849849,363.750965 Z" id="Shape" fill="#000000" fill-rule="nonzero"></path>
                <path d="M652.148212,369.537912 L663.089946,425.514225 C663.284224,426.541794 662.746864,427.568183 661.791494,427.994345 C661.205301,428.247715 660.538632,428.238068 659.960023,427.967843 C659.381414,427.697618 658.946245,427.192679 658.764529,426.580677 L645.531896,371.77002 L652.148212,369.537912 Z" id="Shape" fill="#000000" fill-rule="nonzero"></path>
                <path d="M668.689003,361.584993 L691.672433,441.775546 C692.092821,443.107124 691.519308,444.550691 690.299547,445.231181 C689.557977,445.673614 688.658497,445.76515 687.842945,445.481178 C687.027392,445.197205 686.379468,444.566868 686.073375,443.759643 L660.2532,365.404378 L668.689003,361.584993 Z" id="Shape" fill="#000000" fill-rule="nonzero"></path>
                <path d="M551.737339,330.682695 C549.306454,330.686281 546.906238,331.225407 544.707503,332.261705 C547.932957,338.486807 549.314113,343.77773 547.138999,345.951969 C544.509013,348.572629 540.439979,351.185022 533.16203,346.778675 L498.318854,410.873249 C498.318854,410.873249 504.108131,415.006782 509.897407,415.833489 C515.686684,416.660196 525.611159,415.833489 525.611159,415.833489 L557.113096,362.83332 C558.604361,360.325792 561.30731,358.789501 564.225636,358.790724 L631.472223,358.790724 C640.569658,358.790724 657.937489,350.523657 662.072687,330.682695 L551.737339,330.682695 Z" id="Shape" fill="#000000" fill-rule="nonzero"></path>
            </g>
        </g>
    </g>
</svg>