<?xml version="1.0" encoding="UTF-8"?>
<svg width="170px" height="29px" viewBox="0 0 170 29" version="1.1" xmlns="http://www.w3.org/2000/svg" xmlns:xlink="http://www.w3.org/1999/xlink">
    <!-- Generator: sketchtool 52.2 (67145) - http://www.bohemiancoding.com/sketch -->
    <title>EC7AAB01-4CF9-4172-9C2A-16B2D75663E6@1.5x</title>
    <desc>Created with sketchtool.</desc>
    <g id="Komodo-Website-2.0-Designs" stroke="none" stroke-width="1" fill="none" fill-rule="evenodd">
        <g id="Northumbria-Case-Study-Desktop" transform="translate(-35.000000, -28.000000)" fill="#FFFFFF">
            <path d="M193.74215,50.5889286 C194.686092,50.2018673 195.498308,49.6399184 196.156043,48.9184694 C196.819767,48.1908061 197.337693,47.2826327 197.69545,46.2208776 C198.061292,45.1345612 198.247206,43.8831224 198.247206,42.5 C198.247206,41.1168776 198.061292,39.8651429 197.69545,38.7791224 C197.336794,37.7161837 196.818869,36.8041633 196.153948,36.069102 C195.497409,35.3432143 194.686092,34.7791939 193.74215,34.3930204 C192.783538,34.0000408 191.679728,33.8011837 190.461255,33.8011837 C189.243082,33.8011837 188.135978,34.0006327 187.170481,34.3930204 C186.219353,34.7806735 185.400552,35.3449898 184.738924,36.0714694 C184.068315,36.8068265 183.543204,37.7191429 183.179458,38.7826735 C182.808528,39.8672143 182.61962,41.1174694 182.61962,42.5 C182.61962,43.8819388 182.808528,45.1327857 183.179458,46.2170306 C183.543204,47.2796735 184.067417,48.1881429 184.737128,48.916398 C185.399653,49.6378469 186.218455,50.2009796 187.170481,50.5883367 C188.13508,50.9810204 189.241884,51.1795816 190.461255,51.1795816 C191.680327,51.1795816 192.783538,50.9810204 193.74215,50.5889286 Z M205,42.5 C205,44.5551531 204.646134,46.491051 203.949778,48.2514694 C203.250429,50.0178061 202.252598,51.5693061 200.983231,52.8633571 C199.71117,54.1600714 198.161584,55.1863163 196.377285,55.9104286 C194.599272,56.6333571 192.6093,57 190.461255,57 C188.314408,57 186.321142,56.6333571 184.537442,55.9104286 C182.747155,55.1863163 181.191282,54.1612551 179.914131,52.8654286 C178.636681,51.5704898 177.635258,50.0189898 176.935908,48.2514694 C176.239852,46.4919388 175.885986,44.5572245 175.885986,42.5 C175.885986,40.4433673 176.239852,38.5080612 176.935908,36.7482347 C177.635258,34.9813061 178.636681,33.4295102 179.914131,32.1345714 C181.191282,30.8387449 182.747155,29.8139796 184.537442,29.0889796 C186.321142,28.3666429 188.314408,28 190.461255,28 C192.610497,28 194.601368,28.369898 196.380278,29.0993367 C198.162482,29.830551 199.709972,30.8547245 200.981435,32.143449 C202.251401,33.4324694 203.250429,34.9813061 203.949778,36.7482347 C204.646134,38.5095408 205,40.4448469 205,42.5 Z M163.192613,50.5889286 C164.136855,50.2018673 164.94937,49.6399184 165.606806,48.9184694 C166.269332,48.1908061 166.791449,47.2820408 167.156093,46.2170306 C167.52852,45.131898 167.717129,43.881051 167.717129,42.5 C167.717129,41.118949 167.52852,39.868102 167.156093,38.7826735 C166.791449,37.718551 166.269332,36.8091939 165.606806,36.080051 C164.948472,35.3594898 164.135657,34.7981327 163.192613,34.4107755 C162.233403,34.0186837 161.129293,33.8198265 159.912018,33.8198265 L155.415344,33.8198265 L155.415344,51.1795816 L159.912018,51.1795816 C161.130491,51.1795816 162.234301,50.9810204 163.192613,50.5889286 Z M173.398445,36.7893673 C174.096897,38.5216735 174.450763,40.4427755 174.450763,42.5 C174.450763,44.5572245 174.096897,46.4786224 173.398445,48.2097449 C172.6973,49.9482653 171.696176,51.4669184 170.425013,52.7236837 C169.152652,53.9822245 167.602168,54.9714796 165.815773,55.6648163 C164.043149,56.3528265 162.056171,56.702602 159.912018,56.702602 L149.538833,56.702602 C149.106829,56.702602 148.756256,56.3557857 148.756256,55.9287755 L148.756256,29.0709286 C148.756256,28.6439184 149.106829,28.297398 149.538833,28.297398 L159.912018,28.297398 C162.056171,28.297398 164.043149,28.6498367 165.818766,29.3452449 C167.602168,30.0445 169.151454,31.0331633 170.422618,32.2837143 C171.696176,33.5345612 172.6973,35.050551 173.398445,36.7893673 Z M136.124855,50.5889286 C137.070893,50.2018673 137.88251,49.6399184 138.540245,48.9190612 C139.202771,48.1916939 139.720398,47.2841122 140.079353,46.2208776 C140.445494,45.1345612 140.630809,43.8831224 140.630809,42.5 C140.630809,41.1168776 140.445494,39.8651429 140.079353,38.7791224 C139.720398,37.715 139.201574,36.8029796 138.53815,36.069102 C137.881611,35.3438061 137.069695,34.7794898 136.124855,34.3930204 C135.166842,34.0000408 134.062732,33.8011837 132.845457,33.8011837 C131.626086,33.8011837 130.518982,34.0006327 129.554682,34.3930204 C128.602358,34.7806735 127.784754,35.3449898 127.122228,36.0714694 C126.452217,36.8059388 125.927106,37.7179592 125.563062,38.7826735 C125.191233,39.8675102 125.002624,41.1180612 125.002624,42.5 C125.002624,43.8819388 125.191233,45.1327857 125.563062,46.2170306 C125.927106,47.2808571 126.45102,48.1890306 127.120132,48.916398 C127.783855,49.6378469 128.602358,50.2009796 129.553485,50.5883367 C130.517785,50.9810204 131.624889,51.1795816 132.845457,51.1795816 C134.06363,51.1795816 135.16774,50.9810204 136.124855,50.5889286 Z M146.332783,36.7482347 C147.030336,38.5095408 147.382705,40.4448469 147.382705,42.5 C147.382705,44.5551531 147.030336,46.491051 146.333681,48.2514694 C145.634331,50.0178061 144.635303,51.5693061 143.366236,52.8633571 C142.093875,54.1600714 140.545187,55.1863163 138.761486,55.9104286 C136.983175,56.6333571 134.992304,57 132.845457,57 C130.697412,57 128.704147,56.6333571 126.920147,55.9104286 C125.131058,55.1863163 123.575185,54.1612551 122.296836,52.8654286 C121.020583,51.5704898 120.018562,50.0189898 119.318913,48.2514694 C118.622856,46.4919388 118.270188,44.5560408 118.270188,42.5 C118.270188,40.4436633 118.622856,38.5080612 119.318913,36.7482347 C120.018562,34.9813061 121.020583,33.4289184 122.296836,32.1345714 C123.574287,30.8381531 125.130159,29.8139796 126.920147,29.0889796 C128.704147,28.3666429 130.697412,28 132.845457,28 C134.993202,28 136.984372,28.369898 138.763582,29.0993367 C140.546384,29.830551 142.093875,30.8547245 143.365038,32.143449 C144.635303,33.4324694 145.633433,34.9813061 146.332783,36.7482347 Z M116.0946,28.297398 L112.279613,28.297398 C112.032027,28.297398 111.81797,28.3047959 111.636547,28.3184082 C111.400037,28.3367551 111.178497,28.3838061 110.977015,28.4595612 C110.734218,28.551 110.515971,28.6971837 110.329458,28.8930816 C110.172583,29.0570204 110.031875,29.2576531 109.898352,29.5053367 L101.854336,44.3841122 C101.697462,44.6767755 101.544479,44.9824592 101.399879,45.2979082 C101.262164,44.9984388 101.115768,44.7042959 100.961588,44.4181429 L92.8454218,29.5053367 C92.7077074,29.2499592 92.5586167,29.0448878 92.3888687,28.8768061 C92.1990624,28.688898 91.9829107,28.5483367 91.747,28.4595612 C91.5464161,28.3838061 91.3248756,28.3367551 91.0859711,28.3184082 C90.9063437,28.3047959 90.6934852,28.297398 90.4444018,28.297398 L86.6300133,28.297398 C86.1974105,28.297398 85.8474364,28.6439184 85.8474364,29.0709286 L85.8474364,55.9287755 C85.8474364,56.3557857 86.1974105,56.702602 86.6300133,56.702602 L91.0647152,56.702602 C91.4979167,56.702602 91.8478908,56.3557857 91.8478908,55.9287755 L91.8478908,39.603551 L98.5830213,51.9486735 C98.833901,52.4100102 99.1701037,52.7778367 99.582648,53.0406122 C100.011059,53.3137449 100.508627,53.4519388 101.061281,53.4519388 L101.757637,53.4519388 C102.310291,53.4519388 102.807559,53.3137449 103.235671,53.0406122 C103.648814,52.7778367 103.985017,52.4100102 104.236495,51.946602 L110.877022,39.6532653 L110.877022,55.9287755 C110.877022,56.3557857 111.227595,56.702602 111.659599,56.702602 L116.0946,56.702602 C116.526604,56.702602 116.877476,56.3557857 116.877476,55.9287755 L116.877476,29.0709286 C116.877476,28.6439184 116.526604,28.297398 116.0946,28.297398 Z M73.2157361,50.5889286 C74.1605764,50.2018673 74.9730911,49.6399184 75.6296294,48.9190612 C76.292754,48.1916939 76.8112785,47.2841122 77.170234,46.2208776 C77.5360752,45.1345612 77.7216902,43.8831224 77.7216902,42.5 C77.7216902,41.1168776 77.5360752,39.8651429 77.170234,38.7791224 C76.8106797,37.715 76.2924546,36.8029796 75.6281325,36.069102 C74.972193,35.3432143 74.160277,34.7794898 73.2157361,34.3930204 C72.2574237,34.0000408 71.1533138,33.8011837 69.9360385,33.8011837 C68.7166677,33.8011837 67.6095639,34.0006327 66.645264,34.3930204 C65.693538,34.7806735 64.875335,35.3449898 64.2128092,36.0714694 C63.5427989,36.8059388 63.0182868,37.7179592 62.6539425,38.7826735 C62.2818143,39.8675102 62.0938043,41.1180612 62.0938043,42.5 C62.0938043,43.8819388 62.2818143,45.1327857 62.6539425,46.2170306 C63.0179874,47.2808571 63.5419007,48.1890306 64.2107135,48.916398 C64.8744369,49.6378469 65.6929392,50.2009796 66.6446652,50.5883367 C67.6083664,50.9810204 68.7157695,51.1795816 69.9360385,51.1795816 C71.1542119,51.1795816 72.2583219,50.9810204 73.2157361,50.5889286 Z M83.4236636,36.7482347 C84.1203187,38.5092449 84.473586,40.4436633 84.473586,42.5 C84.473586,44.5560408 84.1203187,46.491051 83.4236636,48.2514694 C82.7246135,50.0178061 81.7267832,51.5693061 80.4568172,52.8645408 C79.1847556,54.1612551 77.6348703,55.1863163 75.852068,55.9104286 C74.0740558,56.6333571 72.0831851,57 69.9360385,57 C67.7882932,57 65.7950275,56.6333571 64.0107283,55.9104286 C62.2219385,55.1863163 60.6660656,54.1612551 59.387717,52.8654286 C58.1111647,51.5704898 57.109143,50.0189898 56.4097936,48.2514694 C55.7134379,46.4919388 55.3607694,44.5560408 55.3607694,42.5 C55.3607694,40.4436633 55.7134379,38.5080612 56.4097936,36.7482347 C57.109143,34.9813061 58.1111647,33.4289184 59.387717,32.1345714 C60.6654668,30.8381531 62.2213397,29.8139796 64.0113271,29.0889796 C65.7950275,28.3666429 67.7882932,28 69.9360385,28 C72.0837839,28 74.0749539,28.369898 75.8541637,29.0993367 C77.6360678,29.8299592 79.1841569,30.8547245 80.4559191,32.143449 C81.7261844,33.4315816 82.7243142,34.9813061 83.4236636,36.7482347 Z M59.4865121,55.4671429 C59.6628464,55.702102 59.6903892,56.0154796 59.5568662,56.2767755 C59.4242413,56.5374796 59.1536026,56.702602 58.8575167,56.702602 L54.3856918,56.702602 C53.6378429,56.702602 53.0711184,56.586898 52.6519877,56.3489796 C52.2544123,56.1231939 51.9200059,55.7985714 51.6550555,55.3845816 L43.992748,45.4961735 C43.8224013,45.2777857 43.6364869,45.1212449 43.4412918,45.0327653 C43.3239352,44.9792041 43.0374294,44.8895408 42.4350788,44.8895408 L41.6204684,44.8895408 L41.6204684,55.9287755 C41.6204684,56.3557857 41.2695961,56.702602 40.8372928,56.702602 L35.7831756,56.702602 C35.3502735,56.702602 35,56.3557857 35,55.9287755 L35,29.0531735 C35,28.6252755 35.3502735,28.279051 35.7831756,28.279051 L40.8372928,28.279051 C41.2695961,28.279051 41.6204684,28.6252755 41.6204684,29.0531735 L41.6204684,39.5532449 L42.0210375,39.5532449 C42.3901719,39.5532449 42.6868566,39.5076735 42.9018107,39.4180102 C43.091617,39.3392959 43.2535811,39.2135306 43.3963849,39.0330204 L50.8967283,29.6506327 C51.2829273,29.16 51.7134344,28.8051939 52.1729812,28.5983469 C52.6184572,28.3991939 53.1669197,28.297398 53.8031002,28.297398 L58.1620592,28.297398 C58.4638332,28.297398 58.739262,28.4684388 58.8691925,28.7380204 C58.999123,29.007602 58.9605031,29.326602 58.7706968,29.558602 L49.6195773,40.7206429 C49.3366641,41.0615408 49.0624329,41.3547959 48.8013743,41.5968571 C48.8546638,41.6359184 48.9055582,41.6767551 48.9564527,41.7184796 C49.3363647,42.0297857 49.7054991,42.4260204 50.0554732,42.8956429 L59.4865121,55.4671429 Z" id="Fill-1"></path>
        </g>
    </g>
</svg>