<?xml version="1.0" encoding="UTF-8"?>
<svg width="201px" height="57px" viewBox="0 0 201 57" version="1.1" xmlns="http://www.w3.org/2000/svg" xmlns:xlink="http://www.w3.org/1999/xlink">
    <!-- Generator: sketchtool 52.2 (67145) - http://www.bohemiancoding.com/sketch -->
    <title>144F55C9-1F80-4157-889C-CCDA08918B83@1.5x</title>
    <desc>Created with sketchtool.</desc>
    <g id="Komodo-Website-2.0-Designs" stroke="none" stroke-width="1" fill="none" fill-rule="evenodd">
        <g id="About-V2-Desktop" transform="translate(-35.000000, -5777.000000)" fill="#FFFFFF" fill-rule="nonzero">
            <g id="Footer" transform="translate(0.000000, 5719.000000)">
                <g id="Komodo_Logo_Black_PFSLockup">
                    <g transform="translate(35.000000, 58.000000)">
                        <path d="M27.9729045,31.9464825 C28.1751912,32.2205527 28.2067087,32.5832467 28.0546762,32.8874884 C27.9078273,33.1923423 27.5985615,33.3879354 27.2574019,33.3917192 L22.1466694,33.3917192 C21.2948806,33.3917192 20.644114,33.2568079 20.1654087,32.9802399 C19.6987145,32.7047164 19.3078483,32.3195312 19.0274189,31.8587902 L10.2727341,20.3491748 C10.1097772,20.1225738 9.89418033,19.9380709 9.64411401,19.8112162 C9.50953138,19.7488198 9.1824445,19.6425772 8.49419919,19.6425772 L7.56404586,19.6425772 L7.56404586,32.4810683 C7.56860286,32.7195685 7.47666087,32.9499761 7.30868314,33.1210101 C7.14070542,33.2920441 6.91063129,33.3895114 6.66966767,33.3917192 L0.894539901,33.3917192 C0.653731447,33.3899594 0.42365137,33.2928664 0.255624536,33.1220993 C0.0875977014,32.9513321 -0.00439712402,32.7210975 0.000161706687,32.4827547 L0.000161706687,1.22550617 C-0.00210703619,0.988613508 0.0909029855,0.760555708 0.258681959,0.591622222 C0.426460932,0.422688737 0.655228932,0.326754313 0.894539901,0.324973629 L6.66966767,0.324973629 C7.16766194,0.329610291 7.5678265,0.732528444 7.56404586,1.22550617 L7.56404586,13.4383464 L8.02060464,13.4383464 C8.36386983,13.4512923 8.70640191,13.3980252 9.02912252,13.2815121 C9.25332094,13.1831175 9.44768976,13.0284936 9.59300668,12.8329322 L18.1620016,1.92029907 C18.5407581,1.40174016 19.0412253,0.982139535 19.6202639,0.697665937 C20.208189,0.449417988 20.8433328,0.329768317 21.4822741,0.346896706 L26.4618312,0.346896706 C26.8073192,0.346292108 27.1220159,0.543457814 27.269327,0.852813866 C27.4191135,1.16611885 27.3754807,1.53652811 27.1568908,1.80731091 L16.6952213,14.7958908 C16.4054516,15.1524556 16.0930664,15.4904158 15.7599573,15.8077251 C15.8212861,15.8532577 15.8792077,15.9004766 15.930315,15.9493819 C16.4029716,16.3541505 16.824534,16.8139268 17.1858517,17.318731 L27.9729045,31.9464825 Z M55.3187307,10.1751807 C56.1283839,12.3135987 56.5326479,14.5815071 56.511235,16.865092 C56.5329066,19.1481493 56.1286309,21.4155514 55.3187307,23.5533168 C54.5598858,25.5467383 53.4080655,27.3708289 51.930315,28.9194115 C50.4441931,30.4486679 48.6525997,31.6547523 46.6696677,32.4608316 C42.3216377,34.1495406 37.4895886,34.1495406 33.1415586,32.4608316 C31.15299,31.6541182 29.3548344,30.4483019 27.8604684,28.9194115 C26.3743549,27.3730906 25.2158882,25.5479915 24.4533133,23.5516304 C23.6434131,21.413865 23.2391375,19.1464629 23.2608091,16.8634056 C23.23924,14.5798079 23.643509,12.3118714 24.4533133,10.1734943 C25.2162968,8.17783489 26.3747285,6.35336416 27.8604684,4.80739966 C29.3538104,3.27730299 31.1522382,2.07130427 33.1415586,1.26597955 C35.291447,0.40505594 37.5925883,-0.0248495022 39.9115757,0.00118664723 C42.2308508,-0.0258344396 44.531955,0.40886843 46.6781856,1.27947067 C48.6569028,2.09145993 50.4462282,3.29679819 51.9354258,4.82089079 C53.412509,6.36452679 54.562833,8.18498581 55.3187307,10.1751807 Z M43.6577426,26.2734648 C44.7134173,25.8402093 45.6563382,25.1760425 46.4158346,24.3307429 C47.2122748,23.4142097 47.8111225,22.3462405 48.1756302,21.1923701 C48.6140802,19.7916805 48.8267975,18.3313405 48.8059539,16.865092 C48.8267975,15.3988434 48.6140802,13.9385035 48.1756302,12.5378139 C47.8101018,11.3799652 47.2108223,10.3076699 46.414131,9.38594996 C45.6571667,8.53695727 44.7144282,7.87020143 43.6577426,7.43648251 C41.2415596,6.51915632 38.5679631,6.51915632 36.1517801,7.43648251 C35.0880987,7.87062893 34.1379956,8.53839076 33.3732452,9.38932274 C32.5700236,10.3098208 31.963815,11.3820705 31.5913031,12.5411866 C31.1465148,13.9394806 30.930836,15.3992704 30.9524615,16.865092 C30.9306951,18.33037 31.1463792,19.7896268 31.5913031,21.1873109 C31.9611483,22.3433135 32.5664519,23.411996 33.369838,24.3273701 C34.1376498,25.1743436 35.0885601,25.838972 36.1517801,26.2717784 C38.5681719,27.1879881 41.2413509,27.1879881 43.6577426,26.2717784 L43.6577426,26.2734648 Z M92.6424104,0.346896706 L88.2846592,0.346896706 C88.0018653,0.346896706 87.7565501,0.355328659 87.5504172,0.372192564 C87.2919142,0.391806186 87.0376798,0.448616456 86.7957324,0.540831618 C86.5132975,0.651015276 86.2603036,0.824131535 86.0563798,1.04674878 C85.8611648,1.26134502 85.6956061,1.50065621 85.5640459,1.75840558 L76.3749488,19.0573997 C76.1943695,19.3946778 76.0206046,19.753879 75.8553576,20.1215121 C75.6986285,19.7724293 75.5316779,19.430092 75.3545058,19.097873 L66.0819334,1.75166002 C65.9458156,1.48395145 65.7701172,1.23784074 65.5606387,1.02145292 C65.3546666,0.809197205 65.1047815,0.643520838 64.8281004,0.535772446 C64.5862602,0.443208275 64.3319732,0.386386271 64.0734155,0.367133393 C63.8672827,0.350269487 63.6236711,0.341837535 63.3391736,0.341837535 L58.9831259,0.341837535 C58.7435116,0.344500675 58.5148351,0.441522635 58.3476441,0.611457269 C58.180453,0.781391903 58.0885159,1.01024477 58.0921549,1.24742925 L58.0921549,32.4827547 C58.0898861,32.7196474 58.1828962,32.9477052 58.3506751,33.1166386 C58.5184541,33.2855721 58.7472221,33.3815066 58.9865331,33.3832872 L64.0546762,33.3832872 C64.2941413,33.3815049 64.5230825,33.2856247 64.6911319,33.1167407 C64.8591812,32.9478566 64.9525721,32.7198038 64.950758,32.4827547 L64.950758,13.4923109 L72.644114,27.8502399 C72.9088273,28.3630418 73.301771,28.8002082 73.7855109,29.120092 C74.2884027,29.4420609 74.8766351,29.6087672 75.4754598,29.5990269 L76.2710305,29.5990269 C76.869332,29.6088397 77.4570405,29.4421138 77.9592758,29.120092 C78.4442135,28.8003612 78.8378711,28.3624725 79.1023764,27.8485535 L86.688407,13.5513346 L86.688407,32.4827547 C86.6861383,32.7196474 86.7791483,32.9477052 86.9469273,33.1166386 C87.1147062,33.2855721 87.3434742,33.3815066 87.5827852,33.3832872 L92.6492247,33.3832872 C92.8885357,33.3815066 93.1173037,33.2855721 93.2850827,33.1166386 C93.4528617,32.9477052 93.5458717,32.7196474 93.5436029,32.4827547 L93.5436029,1.24742925 C93.545876,1.0093719 93.4519337,0.78029042 93.2826803,0.611160988 C93.1134269,0.442031555 92.8829047,0.346886072 92.6424104,0.346896706 Z M127.185852,10.1751807 C127.995958,12.313476 128.400237,14.5814687 128.378356,16.865092 C128.399754,19.1481269 127.995487,21.4154798 127.185852,23.5533168 C126.426176,25.5462173 125.273795,27.3697058 123.795732,28.9177251 C122.309999,30.4474368 120.518302,31.6535907 118.535085,32.4591452 C114.187623,34.1477468 109.356142,34.1477468 105.00868,32.4591452 C103.020205,31.652259 101.222083,30.4464654 99.7275893,28.9177251 C98.2414758,27.3714042 97.0830091,25.5463052 96.3204343,23.549944 C95.5105341,21.4121786 95.1062584,19.1447765 95.12793,16.8617192 C95.106361,14.5781215 95.51063,12.310185 96.3204343,10.1718079 C97.0834177,8.1761485 98.2418495,6.35167777 99.7275893,4.80571327 C101.220931,3.2756166 103.019359,2.06961787 105.00868,1.26429316 C107.158687,0.403946481 109.459824,-0.025384978 111.778697,0.00118664723 C114.096218,-0.0247431257 116.395434,0.409931429 118.540196,1.27947067 C120.518651,2.09102564 122.307503,3.29643574 123.795732,4.82089079 C125.275479,6.36375889 126.428175,8.18430551 127.185852,10.1751807 Z M115.524864,26.2734648 C116.581065,25.840276 117.524556,25.1761183 118.284659,24.3307429 C119.080569,23.4141167 119.678841,22.3461407 120.042751,21.1923701 C120.48201,19.7918611 120.694745,18.3313933 120.673075,16.865092 C120.694745,15.3987906 120.48201,13.9383229 120.042751,12.5378139 C119.677121,11.38036 119.078492,10.3081908 118.282956,9.38594996 C117.524859,8.53745684 116.581695,7.87081223 115.524864,7.43648251 C113.108681,6.51915632 110.435084,6.51915632 108.018901,7.43648251 C106.95522,7.87062893 106.005117,8.53839076 105.240366,9.38932274 C104.437091,10.3095078 103.831387,11.3818889 103.460128,12.5411866 C103.013927,13.939198 102.797653,15.399124 102.819582,16.865092 C102.797481,18.3305185 103.013761,19.7899167 103.460128,21.1873109 C103.829259,22.3436197 104.43464,23.4124395 105.238663,24.3273701 C106.006181,25.1739196 106.956435,25.8384966 108.018901,26.2717784 C110.435293,27.1879881 113.108472,27.1879881 115.524864,26.2717784 L115.524864,26.2734648 Z M158.114301,10.2240861 C158.929384,12.34408 159.334492,14.5968912 159.308509,16.865092 C159.331773,19.1338292 158.923773,21.386658 158.105784,23.5060979 C157.345027,25.4660407 156.189258,27.2522039 154.70885,28.7558316 C153.213977,30.2463661 151.42098,31.4112575 149.444795,32.1758316 C147.295304,33.0023531 145.00617,33.4150367 142.700332,33.3917192 L130.850247,33.3917192 C130.610936,33.3899385 130.382168,33.2940041 130.214389,33.1250706 C130.04661,32.9561371 129.9536,32.7280793 129.955869,32.4911866 L129.955869,1.24742925 C129.9536,1.01053659 130.04661,0.782478785 130.214389,0.613545299 C130.382168,0.444611814 130.610936,0.34867739 130.850247,0.346896706 L142.700332,0.346896706 C145.007822,0.320881919 147.298797,0.734833958 149.448203,1.56615706 C153.444173,3.1056086 156.591401,6.25296316 158.105784,10.2240861 L158.114301,10.2240861 Z M146.45672,26.2734648 C147.512092,25.8397572 148.454479,25.1749795 149.213109,24.3290565 C150.012662,23.4117601 150.614928,22.3427483 150.983126,21.1873109 C151.4275,19.7895775 151.642048,18.3302276 151.61856,16.865092 C151.639702,15.3990482 151.422858,13.9391572 150.976312,12.5411866 C150.606968,11.3857319 150.004836,10.3163868 149.206295,9.39775469 C148.44589,8.55461787 147.503918,7.89128587 146.449906,7.45671919 C145.25908,6.98374513 143.984981,6.75041485 142.702036,6.77035824 L137.562342,6.77035824 L137.562342,26.9598257 L142.700332,26.9598257 C143.983304,26.9800856 145.257466,26.7467439 146.448203,26.2734648 L146.45672,26.2734648 Z M194.207998,16.865092 C194.229396,19.1481269 193.82513,21.4154798 193.015494,23.5533168 C192.256407,25.5461186 191.104602,27.369612 189.627078,28.9177251 C188.140395,30.4470989 186.348221,31.6531833 184.364727,32.4591452 C180.017265,34.1477468 175.185784,34.1477468 170.838322,32.4591452 C168.849001,31.6538205 167.050574,30.4478218 165.557232,28.9177251 C164.070534,27.371854 162.911988,25.5466312 162.150077,23.549944 C161.340176,21.4121786 160.935901,19.1447765 160.957572,16.8617192 C160.936042,14.5781247 161.34031,12.3101953 162.150077,10.1718079 C162.91244,8.17584316 164.070945,6.35125678 165.557232,4.80571327 C167.050574,3.2756166 168.849001,2.06961787 170.838322,1.26429316 C172.985677,0.405042968 175.283809,-0.0242679446 177.599821,0.00118664723 C179.917375,-0.0251097125 182.216664,0.409578634 184.36132,1.27947067 C186.339775,2.09102564 188.128628,3.29643574 189.616857,4.82089079 C191.099002,6.36351297 192.254539,8.18397252 193.015494,10.1751807 C193.824996,12.3136395 194.229255,14.5815199 194.207998,16.865092 Z M181.347692,26.2734648 C182.402833,25.8393462 183.345133,25.1746299 184.10408,24.3290565 C184.90171,23.4139816 185.500716,22.3463052 185.863876,21.1923701 C186.302326,19.7916805 186.515043,18.3313405 186.494199,16.865092 C186.515043,15.3988434 186.302326,13.9385035 185.863876,12.5378139 C185.49826,11.3800022 184.898989,10.3077236 184.102376,9.38594996 C183.346386,8.53663238 182.404116,7.8697959 181.347692,7.43648251 C178.930942,6.51904453 176.256775,6.51904453 173.840025,7.43648251 C172.776344,7.87062893 171.826241,8.53839076 171.06149,9.38932274 C170.257762,10.309469 169.651492,11.3818269 169.279548,12.5411866 C168.835589,13.9396684 168.61993,15.3993255 168.640707,16.865092 C168.61979,18.3303149 168.835455,19.7894386 169.279548,21.1873109 C169.649679,22.3435474 170.255593,23.412283 171.059787,24.3273701 C171.826639,25.1746607 172.777077,25.839366 173.840025,26.2717784 C176.256984,27.1881001 178.930733,27.1881001 181.347692,26.2717784 L181.347692,26.2734648 Z" id="Shape"></path>
                        <path d="M2.43611584,53.8047337 L0,53.8047337 L0,42 L4.61669506,42 C7.1890971,42 8.90971039,43.6526627 8.90971039,45.9461538 C8.90971039,48.239645 7.1890971,49.8923077 4.61669506,49.8923077 L2.43611584,49.8923077 L2.43611584,53.8047337 Z M4.38841567,44.0573964 L2.43611584,44.0573964 L2.43611584,47.8349112 L4.38841567,47.8349112 C5.63202726,47.8349112 6.36456559,47.0760355 6.36456559,45.9461538 C6.36456559,44.8162722 5.63884157,44.0573964 4.38841567,44.0573964 Z" id="Shape"></path>
                        <path d="M10,49.5701183 C10,46.8550296 11.8057922,45 14.1737649,45 C16.5417376,45 18.1771721,46.787574 18.1771721,49.3677515 L18.1771721,50.1097633 L12.3339012,50.1097633 C12.4361158,51.2733728 13.3219761,51.9985207 14.4974446,51.9985207 C15.2516411,51.9975592 15.9746286,51.7003645 16.5076661,51.1721893 L17.802385,52.7068047 C16.8457681,53.5458974 15.6049496,53.9974783 14.3270869,53.9715976 C11.8398637,53.9715976 10,52.2008876 10,49.5701183 Z M12.350937,48.6088757 L15.9454855,48.6088757 C15.8432709,47.5801775 15.1277683,46.8550296 14.1737649,46.8550296 C13.2197615,46.8550296 12.4872232,47.5801775 12.350937,48.6088757 Z" id="Shape"></path>
                        <path d="M23.3270869,53.9715976 C20.7717206,53.9715976 19,52.0659763 19,49.4857988 C19,46.9056213 20.7887564,45 23.3270869,45 C25.8654174,45 27.6541738,46.8718935 27.6541738,49.4857988 C27.6541738,52.0997041 25.8483816,53.9715976 23.3270869,53.9715976 Z M23.3270869,52.0153846 C24.5536627,52.0153846 25.3543441,51.0372781 25.3543441,49.4857988 C25.3543441,47.9343195 24.5877342,46.9393491 23.3270869,46.9393491 C22.1175468,46.9393491 21.2998296,47.9343195 21.2998296,49.4857988 C21.2998296,51.0372781 22.1175468,52.0086391 23.3270869,52.0086391 L23.3270869,52.0153846 Z" id="Shape"></path>
                        <path d="M32.2657581,52.9428994 L32.2657581,56.3662722 L30,56.3662722 L30,45.1686391 L32.2657581,45.1686391 L32.2657581,46.0286982 L32.2998296,46.0286982 C32.7768313,45.4047337 33.6797274,45 34.6507666,45 C36.8824532,45 38.4667802,46.8550296 38.4667802,49.4689349 C38.4667802,52.0491124 36.9165247,53.9715976 34.6507666,53.9715976 C33.7523285,53.9881275 32.8922142,53.6117677 32.2998296,52.9428994 L32.2657581,52.9428994 Z M32.2657581,49.9242604 C32.2827939,51.2059172 32.9642249,52.0153846 34.1396934,52.0153846 C35.3662692,52.0153846 36.1669506,51.054142 36.1669506,49.4689349 C36.1669506,47.9511834 35.4003407,46.9393491 34.1396934,46.9393491 C32.9812606,46.9393491 32.2657581,47.7656805 32.2657581,49.0473373 L32.2657581,49.9242604 Z" id="Shape"></path>
                        <path d="M43.4088586,52.0508876 L43.6473595,53.754142 C43.2080444,53.8699426 42.7560948,53.9322374 42.3015332,53.939645 C40.802385,53.939645 40,53.2988166 40,52.0340237 L40,42 L42.2674617,42 L42.2674617,51.4775148 C42.2674617,51.9328402 42.4548552,52.1014793 42.9488927,52.1014793 C43.1030816,52.0935274 43.2566671,52.0766346 43.4088586,52.0508876 Z" id="Shape"></path>
                        <path d="M44,49.5701183 C44,46.8550296 45.8074957,45 48.1754685,45 C50.5434412,45 52.1788756,46.787574 52.1788756,49.3677515 L52.1788756,50.1097633 L46.3356048,50.1097633 C46.4378194,51.2733728 47.3236797,51.9985207 48.4991482,51.9985207 C49.2533446,51.9975592 49.9763322,51.7003645 50.5093697,51.1721893 L51.8040886,52.7068047 C50.8474717,53.5458974 49.6066532,53.9974783 48.3287905,53.9715976 C45.8398637,53.9715976 44,52.2008876 44,49.5701183 Z M46.3526405,48.6088757 L49.9471891,48.6088757 C49.8449744,47.5801775 49.1294719,46.8550296 48.1754685,46.8550296 C47.2214651,46.8550296 46.4889267,47.5801775 46.3526405,48.6088757 Z" id="Shape"></path>
                        <polygon id="Shape" points="60.4361158 53.8047337 58 53.8047337 58 42 65.923339 42 65.923339 44.1585799 60.4361158 44.1585799 60.4361158 47.0760355 65.2248722 47.0760355 65.2248722 49.133432 60.4361158 49.133432"></polygon>
                        <path d="M69.2657581,53.7523669 L67,53.7523669 L67,45.1349112 L69.197615,45.1349112 L69.197615,46.5346154 L69.2316865,46.5346154 C69.6405451,45.539645 70.5621806,45 71.6524702,45 C71.7376491,45 71.8228279,45 72.1124361,45.0168639 L72.1124361,47.3609467 C72.0783646,47.3609467 71.7887564,47.3440828 71.362862,47.3440828 C70,47.3440828 69.2657581,48.1704142 69.2657581,49.7556213 L69.2657581,53.7523669 Z" id="Shape"></path>
                        <path d="M74.3287905,43.5801775 C73.6069185,43.5831075 73.0157879,43.0129449 73,42.2985207 C73.0147391,41.5809412 73.6037679,41.0053305 74.3287905,41 C75.0575073,41.0033047 75.6525974,41.5774775 75.6746167,42.2985207 C75.650639,43.0160227 75.0539899,43.5842234 74.3287905,43.5801775 Z M75.4701874,53.1251479 L73.2044293,53.1251479 L73.2044293,44.5076923 L75.4701874,44.5076923 L75.4701874,53.1251479 Z" id="Shape"></path>
                        <path d="M78,49.5701183 C78,46.8550296 79.8057922,45 82.1737649,45 C84.5417376,45 86.1788756,46.787574 86.1788756,49.3677515 L86.1788756,50.1097633 L80.3339012,50.1097633 C80.4361158,51.2733728 81.3219761,51.9985207 82.4974446,51.9985207 C83.2520825,51.9972676 83.9754919,51.7001512 84.5093697,51.1721893 L85.8040886,52.7068047 C84.8467745,53.5458616 83.6054492,53.9974057 82.3270869,53.9715976 C79.834753,53.9715976 78,52.2008876 78,49.5701183 Z M80.350937,48.6088757 L83.9454855,48.6088757 C83.8432709,47.5801775 83.1277683,46.8550296 82.1737649,46.8550296 C81.2197615,46.8550296 80.4872232,47.5801775 80.3458262,48.6088757 L80.350937,48.6088757 Z" id="Shape"></path>
                        <path d="M89.2657581,53.7862945 L87,53.7862945 L87,45.1688389 L89.197615,45.1688389 L89.197615,46.045762 L89.2316865,46.045762 C89.8221543,45.3723346 90.6818788,44.9899784 91.5826235,45.0001998 C93.439523,45.0001998 94.5826235,46.214401 94.5826235,47.9513833 L94.5826235,53.7862945 L92.3202726,53.7862945 L92.3202726,48.6090756 C92.3202726,47.6141052 91.7921635,47.0407324 90.8892675,47.0407324 C89.9522998,47.0407324 89.2708688,47.7321525 89.2708688,48.8283063 L89.2657581,53.7862945 Z" id="Shape"></path>
                        <path d="M103.183986,46.0473373 L103.183986,42 L105.449744,42 L105.449744,53.8047337 L103.183986,53.8047337 L103.183986,52.9615385 L103.149915,52.9615385 C102.655877,53.585503 101.752981,53.9902367 100.798978,53.9902367 C98.5672913,53.9902367 97,52.1014793 97,49.487574 C97,46.8736686 98.5843271,45.0186391 100.798978,45.0186391 C101.770017,45.0186391 102.655877,45.4233728 103.132879,46.0473373 L103.183986,46.0473373 Z M101.332198,52.0272781 C102.507666,52.0272781 103.206133,51.2178107 103.206133,49.9361538 L103.206133,49.0592308 C103.206133,47.7607101 102.507666,46.9512426 101.332198,46.9512426 C100.054514,46.9512426 99.3049404,47.9293491 99.3049404,49.4808284 C99.3049404,51.0323077 100.07155,52.0272781 101.332198,52.0272781 Z" id="Shape"></path>
                        <path d="M110.407155,52.0508876 L110.645656,53.754142 C110.206341,53.8699426 109.754391,53.9322374 109.29983,53.939645 C107.800681,53.939645 107,53.2988166 107,52.0340237 L107,42 L109.260647,42 L109.260647,51.4775148 C109.260647,51.9328402 109.448041,52.1014793 109.942078,52.1014793 C110.097977,52.0937255 110.253275,52.076832 110.407155,52.0508876 Z" id="Shape"></path>
                        <path d="M116.16184,54.5112426 C115.735945,55.860355 114.764906,56.5349112 113.316865,56.5349112 C112.691021,56.5399115 112.067067,56.4662457 111.459966,56.3156805 L111.834753,54.5618343 C112.184481,54.6557151 112.545675,54.7011182 112.908007,54.6967456 C113.521295,54.6967456 113.879046,54.443787 114.032368,53.9210059 L114.117547,53.6005917 L111,45 L113.436116,45 L115.27598,50.7505917 L115.310051,50.7505917 L116.894378,45 L119.211244,45 L116.16184,54.5112426 Z" id="Shape"></path>
                        <path d="M128.298126,53.1420118 C126.049404,53.1420118 124.073254,52.3662722 123,50.9159763 L124.890971,49.4150888 C125.69593,50.4423292 126.933713,51.045647 128.247019,51.0508876 C129.524702,51.0508876 130.393526,50.443787 130.393526,49.6174556 C130.393526,48.8923077 129.916525,48.5044379 128.826235,48.302071 L126.747871,47.9310651 C124.65247,47.5600592 123.477002,46.3795858 123.477002,44.558284 C123.477002,42.5346154 125.385009,41 128.144804,41 C130.069847,41 131.858603,41.6745562 132.829642,42.7707101 L130.9046,44.1872781 C130.223169,43.495858 129.201022,43.1079882 128.076661,43.1079882 C126.884157,43.1079882 126.06644,43.6476331 126.06644,44.389645 C126.06644,45.0473373 126.458262,45.4857988 127.752981,45.7050296 L129.763203,46.0591716 C131.858603,46.4470414 133.034072,47.6275148 133.034072,49.3139053 C133.034072,51.5736686 131.02385,53.1420118 128.298126,53.1420118 Z" id="Shape"></path>
                        <path d="M139.327087,53.9715976 C136.771721,53.9715976 135,52.0659763 135,49.4857988 C135,46.9056213 136.788756,45 139.327087,45 C141.865417,45 143.654174,46.8718935 143.654174,49.4857988 C143.654174,52.0997041 141.843271,53.9715976 139.327087,53.9715976 Z M139.327087,52.0153846 C140.553663,52.0153846 141.354344,51.0372781 141.354344,49.4857988 C141.354344,47.9343195 140.587734,46.9393491 139.327087,46.9393491 C138.117547,46.9393491 137.29983,47.9343195 137.29983,49.4857988 C137.29983,51.0372781 138.117547,52.0086391 139.327087,52.0086391 L139.327087,52.0153846 Z" id="Shape"></path>
                        <path d="M147.645656,53.1251505 L145.379898,53.1251505 L145.379898,46.278405 L144,46.278405 L144,44.5076949 L145.379898,44.5076949 L145.379898,43.4958606 C145.379898,41.9106535 146.402044,41.0000026 148.054514,41.0000026 C148.703596,40.9994772 149.35023,41.0787828 149.979557,41.2360973 L149.60477,43.0236712 C149.242765,42.9332927 148.870784,42.8879723 148.497445,42.88876 C147.935264,42.88876 147.645656,43.2091742 147.645656,43.8162748 L147.645656,44.5076949 L149.451448,44.5076949 L149.451448,46.278405 L147.645656,46.278405 L147.645656,53.1251505 Z" id="Shape"></path>
                        <path d="M151.379898,51.0846154 L151.379898,46.0928994 L150,46.0928994 L150,44.3221893 L151.379898,44.3221893 L151.379898,42.0792899 L153.645656,41 L153.645656,44.3221893 L155.638842,44.3221893 L155.638842,46.0928994 L153.645656,46.0928994 L153.645656,50.4606509 C153.645656,50.9497041 153.901193,51.1857988 154.463373,51.1857988 C154.735736,51.1823828 155.005888,51.1368634 155.264055,51.0508876 L155.497445,52.8485799 C154.931988,53.0338044 154.338096,53.1194209 153.74276,53.1015385 C152.214651,53.108284 151.379898,52.4168639 151.379898,51.0846154 Z" id="Shape"></path>
                        <polygon id="Shape" points="166.76661 53.6174556 163.921635 53.6174556 162.558773 47.7994083 162.524702 47.7994083 161.16184 53.6174556 158.333901 53.6174556 156 45 158.367973 45 159.781942 51.2902367 159.816014 51.2902367 161.298126 45 163.836457 45 165.369676 51.2902367 165.403748 51.2902367 166.851789 45 169.100511 45"></polygon>
                        <path d="M171.226576,47.5970414 L170.238501,45.9275148 C171.442847,45.323834 172.772729,45.0062655 174.122658,45 C176.064736,45 177.325383,45.9612426 177.325383,47.6476331 L177.325383,51.3914201 C177.325383,51.9816568 177.58092,52.302071 178.177172,52.4369822 L177.25724,53.9884615 C176.439523,53.9378698 175.809199,53.55 175.502555,52.9428994 L175.468484,52.9428994 C174.991482,53.6005917 174.105622,53.9715976 173.06644,53.9715976 C171.311755,53.9715976 170,52.8079882 170,51.2227811 C170,49.7218935 171.158433,48.743787 172.913118,48.558284 L175.059625,48.3390533 L175.059625,48.035503 C175.059625,47.2934911 174.650767,46.9393491 173.781942,46.9393491 C173.032368,46.9393491 172.248722,47.1181065 171.226576,47.5970414 Z M175.059625,49.9411243 L173.475298,50.160355 C172.708688,50.2615385 172.282794,50.6494083 172.282794,51.2059172 C172.282794,51.8130178 172.759796,52.2514793 173.526405,52.2514793 C174.39523,52.2514793 175.059625,51.6612426 175.059625,50.8349112 L175.059625,49.9411243 Z" id="Shape"></path>
                        <path d="M182.270869,53.7523669 L180,53.7523669 L180,45.1349112 L182.197615,45.1349112 L182.197615,46.5346154 L182.231687,46.5346154 C182.640545,45.539645 183.560477,45 184.650767,45 C184.735945,45 184.821124,45 185.110733,45.0168639 L185.110733,47.3609467 C185.076661,47.3609467 184.787053,47.3440828 184.361158,47.3440828 C182.998296,47.3440828 182.265758,48.1704142 182.265758,49.7556213 L182.270869,53.7523669 Z" id="Shape"></path>
                        <path d="M186,49.5701183 C186,46.8550296 187.805792,45 190.173765,45 C192.541738,45 194.177172,46.787574 194.177172,49.3677515 L194.177172,50.1097633 L188.333901,50.1097633 C188.436116,51.2733728 189.321976,51.9985207 190.497445,51.9985207 C191.250846,51.9944332 191.971886,51.6948579 192.502555,51.1654438 L193.797274,52.7000592 C192.840657,53.5391518 191.599839,53.9907327 190.321976,53.9648521 C187.839864,53.9715976 186,52.2008876 186,49.5701183 Z M188.350937,48.6088757 L191.945486,48.6088757 C191.843271,47.5801775 191.127768,46.8550296 190.173765,46.8550296 C189.219761,46.8550296 188.487223,47.5801775 188.350937,48.6088757 Z" id="Shape"></path>
                        <path d="M195,44.6577442 C195.011281,43.1805413 196.228809,41.9913757 197.721084,42.0000471 C199.213359,42.0087185 200.416699,43.2119514 200.410461,44.6891835 C200.404223,46.1664157 199.190763,47.3596478 197.698467,47.355969 C196.203746,47.3411719 194.999925,46.1374587 195,44.6577442 Z M199.836457,44.6577442 C199.791702,43.5030298 198.817537,42.5984574 197.650579,42.6280211 C196.48362,42.6575847 195.557471,43.6102995 195.572442,44.7657684 C195.587413,45.9212374 196.53794,46.8501253 197.705281,46.8500519 C198.282124,46.8407634 198.831413,46.6041532 199.231447,46.1926442 C199.631481,45.7811352 199.849232,45.2287034 199.836457,44.6577442 Z M196.540034,43.1079513 L197.834753,43.1079513 C198.500852,43.1079513 198.964225,43.5194306 198.964225,44.0995489 C198.974533,44.4992265 198.728588,44.8617171 198.350937,45.0034542 L199.059625,46.1839276 L198.310051,46.1839276 L197.678024,45.0978921 L197.201022,45.0978921 L197.201022,46.1839276 L196.540034,46.1839276 L196.540034,43.1079513 Z M197.780239,43.6745785 L197.201022,43.6745785 L197.201022,44.5177737 L197.780239,44.5177737 C198.073254,44.5177737 198.277683,44.3828625 198.277683,44.0928033 C198.277683,43.8027442 198.073254,43.6745785 197.780239,43.6745785 Z" id="Shape"></path>
                    </g>
                </g>
            </g>
        </g>
    </g>
</svg>